<svg version="1.1" viewBox="0.0 0.0 700.0 200.0" fill="none" stroke="none" stroke-linecap="square" stroke-miterlimit="10" xmlns:xlink="http://www.w3.org/1999/xlink" xmlns="http://www.w3.org/2000/svg"><clipPath id="p.0"><path d="m0 0l700.0 0l0 200.0l-700.0 0l0 -200.0z" clip-rule="nonzero"/></clipPath><g clip-path="url(#p.0)"><path fill="#000000" fill-opacity="0.0" d="m0 0l700.0 0l0 200.0l-700.0 0z" fill-rule="evenodd"/><path fill="#385ae0" d="m208.07265 4.291921l0 63.342297l12.312119 0l0 -24.977573l28.232483 0l0 -10.397503l-28.232483 0l0 -17.554989l32.577072 0l0 -10.41223z" fill-rule="evenodd"/><path fill="#385ae0" d="m259.2938 22.56855l0 35.56653l9.499176 9.499138l14.756897 0l7.776062 -7.6876755l0 7.6876755l11.030853 0l0 -45.065666l-11.943939 0l0 26.067394l-8.865906 8.865856l-7.2311707 0l-3.0780334 -3.0780106l0 -31.85524z" fill-rule="evenodd"/><path fill="#385ae0" d="m313.2271 22.56855l0 45.065666l11.94397 0l0 -26.244125l8.58609 -8.689129l7.5993347 0l3.0780334 3.166378l0 31.766876l11.943939 0l0 -35.021618l-10.044098 -10.044048l-14.56543 0l-7.5109863 7.5109444l0 -7.5109444z" fill-rule="evenodd"/><path fill="#385ae0" d="m375.02704 22.56855l-9.145752 9.234043l0 26.597576l9.145752 9.234047l24.786255 0l9.322449 -9.410774l0 -8.320946l-11.943939 0l0 4.432926l-3.1663818 3.166378l-13.033783 0l-3.1664124 -3.166378l0 -18.468082l3.1664124 -3.166378l13.033783 0l3.1663818 3.166378l0 4.4476547l11.943939 0l0 -8.335674l-9.322449 -9.41077z" fill-rule="evenodd"/><path fill="#385ae0" d="m421.52667 7.914847l0 14.653704l-8.320984 0l0 10.044048l8.144257 0l0 25.78757l9.322449 9.234047l16.376923 0l0 -10.132416l-10.677399 0l-3.0780334 -2.989647l0 -21.811192l13.755432 0l0 -10.132412l-13.755432 0l0 -14.653704z" fill-rule="evenodd"/><path fill="#385ae0" d="m458.4574 3.2020981l-4.1678467 4.167837l0 5.787845l4.1678467 4.167836l6.332794 0l4.153137 -4.167836l0 -5.787845l-4.153137 -4.167837zm-2.8129272 19.366451l0 45.065666l11.943939 0l0 -45.065666z" fill-rule="evenodd"/><path fill="#385ae0" d="m507.85568 32.524235l3.1663818 3.166378l0 18.82154l-3.1663818 3.166378l-14.300354 0l-3.1663818 -3.166378l0 -18.82154l3.1663818 -3.166378zm-20.088226 -9.955685l-9.322449 9.41077l0 26.244122l9.322449 9.410774l25.876099 0l9.322449 -9.410774l0 -26.244122l-9.322449 -9.41077z" fill-rule="evenodd"/><path fill="#385ae0" d="m532.92535 22.56855l0 45.065666l11.94397 0l0 -26.244125l8.58606 -8.689129l7.599365 0l3.078064 3.166378l0 31.766876l11.943909 0l0 -35.021618l-10.044067 -10.044048l-14.56543 0l-7.5109863 7.5109444l0 -7.5109444z" fill-rule="evenodd"/><path fill="#385ae0" d="m171.19221 4.040517l-20.096191 0l-20.096207 32.21266l20.096207 32.212666l20.096191 0l-20.096191 -32.212666z" fill-rule="evenodd"/><path fill="#385ae0" d="m195.04927 51.97903l-8.971573 16.47189l-22.74916 0l-8.971573 -16.47189z" fill-rule="evenodd"/><path fill="#385ae0" d="m151.84706 4.056915l8.971588 16.471886l25.973541 0l8.971573 -16.471886z" fill-rule="evenodd"/><path fill="#385ae0" d="m168.8767 68.44935l18.062088 0l8.832825 -15.772018l-8.832825 -15.772018l-18.062088 0l8.832825 15.772018z" fill-rule="evenodd"/><path fill="#385ae0" d="m147.5167 4.040517l-3.2992706 0l-20.283775 32.21266l20.283775 32.212666l3.2992706 0l-20.283775 -32.212666z" fill-rule="evenodd"/><path fill="#385ae0" d="m162.46567 68.44935l3.188614 0l9.134064 -15.772018l-9.134064 -15.772018l-3.188614 0l9.134064 15.772018z" fill-rule="evenodd"/><path fill="#000000" fill-opacity="0.0" d="m36.56693 67.625984l626.8661 0l0 56.566933l-626.8661 0z" fill-rule="evenodd"/><path fill="#385ae0" d="m70.54475 106.06599q-0.9375 0 -1.46875 -0.515625q-0.515625 -0.53125 -0.515625 -1.484375l0 -19.453125l8.890625 0q2.265625 0 3.984375 0.875q1.71875 0.859375 2.671875 2.46875q0.953125 1.609375 0.953125 3.703125l0 6.734375q0 3.78125 -1.90625 5.734375q-1.90625 1.9375 -5.578125 1.9375l-7.03125 0zm6.96875 -2.015625q2.609375 0 3.9375 -1.421875q1.328125 -1.4375 1.328125 -4.234375l0 -6.734375q0 -2.234375 -1.484375 -3.625q-1.484375 -1.40625 -3.90625 -1.40625l-6.5625 0l0 17.421875l6.6875 0zm16.677994 2.265625q-2.578125 0 -4.140625 -1.59375q-1.5625 -1.59375 -1.5625 -4.203125l0 -4.203125q0 -2.609375 1.578125 -4.203125q1.578125 -1.59375 4.1875 -1.59375l2.515625 0q2.59375 0 4.171875 1.59375q1.578125 1.59375 1.578125 4.203125l0 4.203125q0 2.609375 -1.59375 4.203125q-1.59375 1.59375 -4.21875 1.59375l-2.515625 0zm2.515625 -1.96875q1.65625 0 2.625 -1.046875q0.984375 -1.0625 0.984375 -2.78125l0 -4.203125q0 -1.71875 -0.984375 -2.765625q-0.96875 -1.0625 -2.5625 -1.0625l-2.515625 0q-1.59375 0 -2.578125 1.0625q-0.984375 1.046875 -0.984375 2.765625l0 4.203125q0 1.75 0.953125 2.796875q0.953125 1.03125 2.546875 1.03125l2.515625 0zm19.491623 -15.875q-0.734375 0 -1.203125 -0.453125q-0.453125 -0.46875 -0.453125 -1.203125q0 -0.734375 0.453125 -1.1875q0.46875 -0.46875 1.203125 -0.46875q0.734375 0 1.1875 0.46875q0.46875 0.453125 0.46875 1.1875q0 0.734375 -0.46875 1.203125q-0.453125 0.453125 -1.1875 0.453125zm-1.109375 2.296875l2.21875 0l0 15.296875l-2.21875 0l0 -15.296875zm13.439384 15.296875q-2.4218674 0 -3.4843674 -1.03125q-1.0625 -1.046875 -1.0625 -3.4375l0 -8.859375l-2.6875 0l0 -1.96875l2.6875 0l0 -4.625l2.21875 0l0 4.625l3.9843674 0l0 1.96875l-3.9843674 0l0 8.859375q0 1.34375 0.53125 1.921875q0.53125 0.578125 1.7968674 0.578125l1.65625 0l0 1.96875l-1.65625 0zm18.025116 0.25q-2.328125 0 -3.75 -1.3125q-1.40625 -1.328125 -1.40625 -3.46875l2.140625 0q0 1.28125 0.828125 2.078125q0.828125 0.796875 2.1875 0.796875l2.65625 0q1.328125 0 2.15625 -0.53125q0.828125 -0.546875 0.828125 -1.40625l0 -1.03125q0 -0.59375 -0.46875 -1.03125q-0.453125 -0.4375 -1.1875 -0.59375l-5.3125 -0.921875q-1.59375 -0.28125 -2.5625 -1.203125q-0.953125 -0.9375 -0.953125 -2.203125l0 -1.015625q0 -1.765625 1.34375 -2.859375q1.34375 -1.09375 3.5625 -1.09375l2.625 0q2.15625 0 3.46875 1.21875q1.3125 1.203125 1.3125 3.203125l-2.140625 0q-0.03125 -1.140625 -0.75 -1.828125q-0.71875 -0.6875 -1.890625 -0.6875l-2.625 0q-1.234375 0 -1.96875 0.578125q-0.734375 0.5625 -0.734375 1.46875l0 0.890625q0 0.59375 0.5 1.046875q0.515625 0.453125 1.3125 0.578125l5.265625 0.921875q1.53125 0.28125 2.46875 1.203125q0.9375 0.90625 0.9375 2.203125l0 1.21875q0 1.6875 -1.421875 2.734375q-1.421875 1.046875 -3.765625 1.046875l-2.65625 0zm13.238174 -17.84375q-0.734375 0 -1.203125 -0.453125q-0.453125 -0.46875 -0.453125 -1.203125q0 -0.734375 0.453125 -1.1875q0.46875 -0.46875 1.203125 -0.46875q0.734375 0 1.1875 0.46875q0.46875 0.453125 0.46875 1.1875q0 0.734375 -0.46875 1.203125q-0.453125 0.453125 -1.1875 0.453125zm-1.109375 2.296875l2.21875 0l0 15.296875l-2.21875 0l0 -15.296875zm24.189392 -0.25q2.03125 0 3.203125 1.3125q1.1875 1.296875 1.1875 3.59375l0 10.640625l-2.203125 0l0 -10.703125q0 -1.34375 -0.625 -2.109375q-0.609375 -0.765625 -1.625 -0.765625l-1.734375 0q-1.328125 0 -2.1875 0.890625q-0.859375 0.890625 -1.09375 2.515625l0 10.171875l-2.21875 0l0 -10.515625q0 -1.4375 -0.5625 -2.25q-0.5625 -0.8125 -1.546875 -0.8125l-1.75 0q-1.25 0 -2.203125 1.109375q-0.953125 1.09375 -1.203125 2.875l0 9.59375l-2.203125 0l0 -15.296875l2.140625 0l0 2.203125q0.625 -1.15625 1.53125 -1.796875q0.921875 -0.65625 1.9375 -0.65625l1.8125 0q1.28125 0 2.21875 0.640625q0.9375 0.625 1.421875 1.8125q0.71875 -1.21875 1.6875 -1.828125q0.984375 -0.625 2.15625 -0.625l1.859375 0zm8.863068 0.25l2.140625 0l0 2.078125q0.65625 -1.03125 1.703125 -1.671875q1.0625 -0.65625 2.140625 -0.65625l2.203125 0q2.453125 0 3.96875 1.5625q1.515625 1.5625 1.515625 4.140625l0 3.78125q0 2.84375 -1.546875 4.578125q-1.546875 1.734375 -4.09375 1.734375l-2.203125 0q-0.953125 0 -2.0 -0.53125q-1.03125 -0.546875 -1.625 -1.40625l0 7.78125l-2.203125 0l0 -21.390625zm7.96875 13.578125q1.59375 0 2.546875 -1.1875q0.953125 -1.203125 0.953125 -3.15625l0 -3.78125q0 -1.6875 -0.921875 -2.703125q-0.921875 -1.03125 -2.421875 -1.03125l-2.140625 0q-1.296875 0 -2.34375 1.0q-1.03125 0.984375 -1.4375 2.546875l0 4.609375q0.21875 1.625 1.265625 2.671875q1.046875 1.03125 2.484375 1.03125l2.015625 0zm13.984985 1.71875q-2.265625 0 -3.25 -0.96875q-0.984375 -0.96875 -0.984375 -3.203125l0 -17.28125l2.203125 0l0 17.28125q0 1.171875 0.46875 1.6875q0.484375 0.515625 1.5625 0.515625l1.046875 0l0 1.96875l-1.046875 0zm8.919022 6.21875q-2.015625 0 -3.34375 -1.09375q-1.3125 -1.078125 -1.46875 -2.859375l2.203125 0q0.125 0.921875 0.84375 1.484375q0.71875 0.578125 1.765625 0.578125l2.390625 0q1.59375 0 2.46875 -1.0625q0.875 -1.0625 0.875 -2.953125l0 -2.828125q-0.734375 1.109375 -1.859375 1.8125q-1.109375 0.703125 -2.21875 0.703125l-1.96875 0q-2.140625 0 -3.484375 -1.4375q-1.328125 -1.4375 -1.328125 -3.78125l0 -10.078125l2.21875 0l0 10.140625q0 1.453125 0.71875 2.328125q0.71875 0.859375 1.875 0.859375l1.90625 0q1.40625 0 2.59375 -1.125q1.203125 -1.140625 1.546875 -2.859375l0 -9.34375l2.203125 0l0 15.609375q0 2.78125 -1.46875 4.34375q-1.46875 1.5625 -4.078125 1.5625l-2.390625 0zm10.644806 -3.890625l0.453125 -0.3125q0.921875 -0.609375 1.359375 -1.421875q0.453125 -0.8125 0.453125 -1.875l0 -1.515625l2.203125 0l0 1.515625q0 1.703125 -0.640625 2.90625q-0.640625 1.203125 -2.0 2.046875l-0.578125 0.375l-1.25 -1.71875zm21.295532 -2.078125q-1.5625 0 -2.796875 -0.734375q-1.21875 -0.734375 -1.890625 -2.046875q-0.671875 -1.328125 -0.671875 -3.078125l0 -3.671875q0 -1.84375 0.703125 -3.265625q0.703125 -1.4375 1.984375 -2.21875q1.296875 -0.78125 2.953125 -0.78125l2.265625 0q1.046875 0 2.0 0.5q0.96875 0.484375 1.5625 1.34375l0 -7.75l2.203125 0l0 21.453125l-2.140625 0l0 -2.265625q-0.71875 1.125 -1.859375 1.828125q-1.125 0.6875 -2.1875 0.6875l-2.125 0zm2.0625 -1.96875q0.96875 0 1.890625 -0.625q0.921875 -0.625 1.5 -1.640625q0.59375 -1.015625 0.65625 -2.078125l0 -3.875q-0.21875 -1.625 -1.21875 -2.625q-1.0 -1.015625 -2.40625 -1.015625l-2.140625 0q-1.5625 0 -2.53125 1.1875q-0.96875 1.171875 -0.96875 3.109375l0 3.671875q0 1.71875 0.90625 2.8125q0.90625 1.078125 2.3125 1.078125l2.0 0zm16.00061 1.96875q-2.578125 0 -4.140625 -1.59375q-1.5625 -1.59375 -1.5625 -4.203125l0 -4.203125q0 -2.609375 1.578125 -4.203125q1.578125 -1.59375 4.1875 -1.59375l2.515625 0q2.59375 0 4.171875 1.59375q1.578125 1.59375 1.578125 4.203125l0 4.203125q0 2.609375 -1.59375 4.203125q-1.59375 1.59375 -4.21875 1.59375l-2.515625 0zm2.515625 -1.96875q1.65625 0 2.625 -1.046875q0.984375 -1.0625 0.984375 -2.78125l0 -4.203125q0 -1.71875 -0.984375 -2.765625q-0.96875 -1.0625 -2.5625 -1.0625l-2.515625 0q-1.59375 0 -2.578125 1.0625q-0.984375 1.046875 -0.984375 2.765625l0 4.203125q0 1.75 0.953125 2.796875q0.953125 1.03125 2.546875 1.03125l2.515625 0zm19.491608 -15.875q-0.734375 0 -1.203125 -0.453125q-0.453125 -0.46875 -0.453125 -1.203125q0 -0.734375 0.453125 -1.1875q0.46875 -0.46875 1.203125 -0.46875q0.734375 0 1.1875 0.46875q0.46875 0.453125 0.46875 1.1875q0 0.734375 -0.46875 1.203125q-0.453125 0.453125 -1.1875 0.453125zm-1.109375 2.296875l2.21875 0l0 15.296875l-2.21875 0l0 -15.296875zm13.439392 15.296875q-2.421875 0 -3.484375 -1.03125q-1.0625 -1.046875 -1.0625 -3.4375l0 -8.859375l-2.6875 0l0 -1.96875l2.6875 0l0 -4.625l2.21875 0l0 4.625l3.984375 0l0 1.96875l-3.984375 0l0 8.859375q0 1.34375 0.53125 1.921875q0.53125 0.578125 1.796875 0.578125l1.65625 0l0 1.96875l-1.65625 0zm18.415771 0.25q-1.5625 0 -2.796875 -0.734375q-1.21875 -0.734375 -1.890625 -2.046875q-0.671875 -1.328125 -0.671875 -3.078125l0 -3.671875q0 -1.84375 0.703125 -3.265625q0.703125 -1.4375 1.984375 -2.21875q1.296875 -0.78125 2.953125 -0.78125l2.265625 0q1.046875 0 2.0 0.5q0.96875 0.484375 1.5625 1.34375l0 -7.75l2.203125 0l0 21.453125l-2.140625 0l0 -2.265625q-0.71875 1.125 -1.859375 1.828125q-1.125 0.6875 -2.1875 0.6875l-2.125 0zm2.0625 -1.96875q0.96875 0 1.890625 -0.625q0.921875 -0.625 1.5 -1.640625q0.59375 -1.015625 0.65625 -2.078125l0 -3.875q-0.21875 -1.625 -1.21875 -2.625q-1.0 -1.015625 -2.40625 -1.015625l-2.140625 0q-1.5625 0 -2.53125 1.1875q-0.96875 1.171875 -0.96875 3.109375l0 3.671875q0 1.71875 0.90625 2.8125q0.90625 1.078125 2.3125 1.078125l2.0 0zm12.56308 -15.875q-0.734375 0 -1.203125 -0.453125q-0.453125 -0.46875 -0.453125 -1.203125q0 -0.734375 0.453125 -1.1875q0.46875 -0.46875 1.203125 -0.46875q0.734375 0 1.1875 0.46875q0.46875 0.453125 0.46875 1.1875q0 0.734375 -0.46875 1.203125q-0.453125 0.453125 -1.1875 0.453125zm-1.109375 2.296875l2.21875 0l0 15.296875l-2.21875 0l0 -15.296875zm8.955017 1.96875l-2.640625 0l0 -1.96875l2.640625 0l0 -1.203125q0 -2.5 1.28125 -3.78125q1.296875 -1.296875 3.78125 -1.296875l1.15625 0l0 1.890625l-1.15625 0q-1.46875 0 -2.171875 0.78125q-0.6875 0.78125 -0.6875 2.40625l0 1.203125l3.6875 0l0 1.96875l-3.6875 0l0 13.328125l-2.203125 0l0 -13.328125zm11.005615 0l-2.640625 0l0 -1.96875l2.640625 0l0 -1.203125q0 -2.5 1.28125 -3.78125q1.296875 -1.296875 3.78125 -1.296875l1.15625 0l0 1.890625l-1.15625 0q-1.46875 0 -2.171875 0.78125q-0.6875 0.78125 -0.6875 2.40625l0 1.203125l3.6875 0l0 1.96875l-3.6875 0l0 13.328125l-2.203125 0l0 -13.328125zm13.770813 13.578125q-2.578125 0 -4.140625 -1.515625q-1.5625 -1.53125 -1.5625 -4.03125l0 -4.390625q0 -2.640625 1.5625 -4.25q1.5625 -1.609375 4.140625 -1.609375l2.515625 0q2.453125 0 3.953125 1.5625q1.5 1.5625 1.5 4.140625l0 2.703125l-11.46875 0l0 1.84375q0 1.59375 0.96875 2.59375q0.96875 0.984375 2.53125 0.984375l2.328125 0q1.53125 0 2.484375 -0.84375q0.953125 -0.84375 0.953125 -2.25l2.140625 0q0 2.265625 -1.53125 3.671875q-1.53125 1.390625 -4.046875 1.390625l-2.328125 0zm5.765625 -9.296875l0 -0.796875q0 -1.6875 -0.890625 -2.703125q-0.890625 -1.03125 -2.359375 -1.03125l-2.515625 0q-1.5625 0 -2.53125 1.078125q-0.96875 1.0625 -0.96875 2.8125l0 0.640625l9.265625 0zm6.0629272 -6.25l2.140625 0l0 2.359375q0.625 -1.078125 1.859375 -1.75q1.25 -0.671875 2.59375 -0.671875l1.34375 0l0 2.0l-1.34375 0q-1.96875 0 -3.1875 1.234375q-1.203125 1.234375 -1.203125 3.296875l0 8.828125l-2.203125 0l0 -15.296875zm15.486084 15.546875q-2.578125 0 -4.140625 -1.515625q-1.5625 -1.53125 -1.5625 -4.03125l0 -4.390625q0 -2.640625 1.5625 -4.25q1.5625 -1.609375 4.140625 -1.609375l2.515625 0q2.453125 0 3.953125 1.5625q1.5 1.5625 1.5 4.140625l0 2.703125l-11.46875 0l0 1.84375q0 1.59375 0.96875 2.59375q0.96875 0.984375 2.53125 0.984375l2.328125 0q1.53125 0 2.484375 -0.84375q0.953125 -0.84375 0.953125 -2.25l2.140625 0q0 2.265625 -1.53125 3.671875q-1.53125 1.390625 -4.046875 1.390625l-2.328125 0zm5.765625 -9.296875l0 -0.796875q0 -1.6875 -0.890625 -2.703125q-0.890625 -1.03125 -2.359375 -1.03125l-2.515625 0q-1.5625 0 -2.53125 1.078125q-0.96875 1.0625 -0.96875 2.8125l0 0.640625l9.265625 0zm6.0629272 -6.25l2.140625 0l0 2.265625q0.71875 -1.09375 1.84375 -1.796875q1.140625 -0.71875 2.265625 -0.71875l2.09375 0q2.109375 0 3.40625 1.453125q1.3125 1.4375 1.3125 3.765625l0 10.328125l-2.203125 0l0 -10.390625q0 -1.40625 -0.71875 -2.296875q-0.703125 -0.890625 -1.859375 -0.890625l-1.96875 0q-1.4375 0 -2.625 1.140625q-1.171875 1.125 -1.484375 2.90625l0 9.53125l-2.203125 0l0 -15.296875zm23.551056 15.296875q-2.421875 0 -3.484375 -1.03125q-1.0625 -1.046875 -1.0625 -3.4375l0 -8.859375l-2.6875 0l0 -1.96875l2.6875 0l0 -4.625l2.21875 0l0 4.625l3.984375 0l0 1.96875l-3.984375 0l0 8.859375q0 1.34375 0.53125 1.921875q0.53125 0.578125 1.796875 0.578125l1.65625 0l0 1.96875l-1.65625 0zm9.929474 0q-2.265625 0 -3.25 -0.96875q-0.984375 -0.96875 -0.984375 -3.203125l0 -17.28125l2.203125 0l0 17.28125q0 1.171875 0.46875 1.6875q0.484375 0.515625 1.5625 0.515625l1.046875 0l0 1.96875l-1.046875 0zm8.919006 6.21875q-2.015625 0 -3.34375 -1.09375q-1.3125 -1.078125 -1.46875 -2.859375l2.203125 0q0.125 0.921875 0.84375 1.484375q0.71875 0.578125 1.765625 0.578125l2.390625 0q1.59375 0 2.46875 -1.0625q0.875 -1.0625 0.875 -2.953125l0 -2.828125q-0.734375 1.109375 -1.859375 1.8125q-1.109375 0.703125 -2.21875 0.703125l-1.96875 0q-2.140625 0 -3.484375 -1.4375q-1.328125 -1.4375 -1.328125 -3.78125l0 -10.078125l2.21875 0l0 10.140625q0 1.453125 0.71875 2.328125q0.71875 0.859375 1.875 0.859375l1.90625 0q1.40625 0 2.59375 -1.125q1.203125 -1.140625 1.546875 -2.859375l0 -9.34375l2.203125 0l0 15.609375q0 2.78125 -1.46875 4.34375q-1.46875 1.5625 -4.078125 1.5625l-2.390625 0zm10.644806 -3.890625l0.453125 -0.3125q0.921875 -0.609375 1.359375 -1.421875q0.453125 -0.8125 0.453125 -1.875l0 -1.515625l2.203125 0l0 1.515625q0 1.703125 -0.640625 2.90625q-0.640625 1.203125 -2.0 2.046875l-0.578125 0.375l-1.25 -1.71875zm21.295532 -2.078125q-1.5625 0 -2.796875 -0.734375q-1.21875 -0.734375 -1.890625 -2.046875q-0.671875 -1.328125 -0.671875 -3.078125l0 -3.671875q0 -1.84375 0.703125 -3.265625q0.703125 -1.4375 1.984375 -2.21875q1.296875 -0.78125 2.953125 -0.78125l2.265625 0q1.046875 0 2.0 0.5q0.96875 0.484375 1.5625 1.34375l0 -7.75l2.203125 0l0 21.453125l-2.140625 0l0 -2.265625q-0.71875 1.125 -1.859375 1.828125q-1.125 0.6875 -2.1875 0.6875l-2.125 0zm2.0625 -1.96875q0.96875 0 1.890625 -0.625q0.921875 -0.625 1.5 -1.640625q0.59375 -1.015625 0.65625 -2.078125l0 -3.875q-0.21875 -1.625 -1.21875 -2.625q-1.0 -1.015625 -2.40625 -1.015625l-2.140625 0q-1.5625 0 -2.53125 1.1875q-0.96875 1.171875 -0.96875 3.109375l0 3.671875q0 1.71875 0.90625 2.8125q0.90625 1.078125 2.3125 1.078125l2.0 0zm16.00061 1.96875q-2.578125 0 -4.140625 -1.59375q-1.5625 -1.59375 -1.5625 -4.203125l0 -4.203125q0 -2.609375 1.578125 -4.203125q1.578125 -1.59375 4.1875 -1.59375l2.515625 0q2.59375 0 4.171875 1.59375q1.5781555 1.59375 1.5781555 4.203125l0 4.203125q0 2.609375 -1.5937805 4.203125q-1.59375 1.59375 -4.21875 1.59375l-2.515625 0zm2.515625 -1.96875q1.65625 0 2.625 -1.046875q0.984375 -1.0625 0.984375 -2.78125l0 -4.203125q0 -1.71875 -0.984375 -2.765625q-0.96875 -1.0625 -2.5625 -1.0625l-2.515625 0q-1.59375 0 -2.578125 1.0625q-0.984375 1.046875 -0.984375 2.765625l0 4.203125q0 1.75 0.953125 2.796875q0.953125 1.03125 2.546875 1.03125l2.515625 0zm19.491608 -15.875q-0.734375 0 -1.203125 -0.453125q-0.453125 -0.46875 -0.453125 -1.203125q0 -0.734375 0.453125 -1.1875q0.46875 -0.46875 1.203125 -0.46875q0.734375 0 1.1875 0.46875q0.46875 0.453125 0.46875 1.1875q0 0.734375 -0.46875 1.203125q-0.453125 0.453125 -1.1875 0.453125zm-1.109375 2.296875l2.21875 0l0 15.296875l-2.21875 0l0 -15.296875zm13.439392 15.296875q-2.421875 0 -3.484375 -1.03125q-1.0625 -1.046875 -1.0625 -3.4375l0 -8.859375l-2.6875 0l0 -1.96875l2.6875 0l0 -4.625l2.21875 0l0 4.625l3.984375 0l0 1.96875l-3.984375 0l0 8.859375q0 1.34375 0.53125 1.921875q0.53125 0.578125 1.796875 0.578125l1.65625 0l0 1.96875l-1.65625 0zm18.087646 0.25q-2.25 0 -3.578125 -1.15625q-1.328125 -1.171875 -1.328125 -3.140625l0 -0.984375q0 -1.921875 1.375 -3.078125q1.375 -1.171875 3.640625 -1.171875l1.96875 0q1.015625 0 2.078125 0.3125q1.078125 0.296875 1.84375 0.8125l0 -2.546875q0 -1.28125 -0.796875 -2.09375q-0.796875 -0.8125 -2.109375 -0.8125l-2.453125 0q-1.328125 0 -2.125 0.609375q-0.796875 0.609375 -0.796875 1.625l-2.203125 0q0 -1.875 1.40625 -3.015625q1.421875 -1.15625 3.71875 -1.15625l2.453125 0q2.265625 0 3.65625 1.34375q1.40625 1.328125 1.40625 3.5l0 10.703125l-2.09375 0l0 -2.140625q-0.703125 1.09375 -1.859375 1.75q-1.140625 0.640625 -2.375 0.640625l-1.828125 0zm1.890625 -1.9375q1.4375 0 2.578125 -0.890625q1.140625 -0.890625 1.53125 -2.359375l0 -1.125q-0.609375 -0.59375 -1.703125 -0.9375q-1.078125 -0.359375 -2.21875 -0.359375l-1.96875 0q-1.25 0 -2.03125 0.65625q-0.78125 0.640625 -0.78125 1.671875l0 0.984375q0 1.078125 0.734375 1.71875q0.734375 0.640625 1.96875 0.640625l1.890625 0zm15.701172 7.90625q-2.03125 0 -3.34375 -1.09375q-1.3125 -1.078125 -1.46875 -2.859375l2.203125 0q0.125 0.921875 0.84375 1.484375q0.71875 0.578125 1.765625 0.578125l2.546875 0q1.59375 0 2.46875 -1.0625q0.875 -1.0625 0.875 -2.953125l0 -2.359375q-0.6875 0.90625 -1.78125 1.484375q-1.078125 0.5625 -2.09375 0.5625l-2.234375 0q-1.5625 0 -2.796875 -0.734375q-1.21875 -0.734375 -1.890625 -2.046875q-0.671875 -1.328125 -0.671875 -3.078125l0 -3.578125q0 -2.734375 1.578125 -4.421875q1.578125 -1.6875 4.15625 -1.6875l2.140625 0q0.984375 0 2.015625 0.5625q1.046875 0.546875 1.640625 1.40625l0 -1.71875l2.140625 0l0 15.609375q0 2.78125 -1.46875 4.34375q-1.46875 1.5625 -4.078125 1.5625l-2.546875 0zm2.015625 -8.1875q1.546875 0 2.625 -1.203125q1.09375 -1.21875 1.25 -3.078125l0 -3.78125q-0.125 -1.5625 -1.15625 -2.546875q-1.03125 -1.0 -2.4375 -1.0l-2.078125 0q-1.625 0 -2.609375 1.140625q-0.984375 1.125 -0.984375 3.0l0 3.578125q0 1.71875 0.90625 2.8125q0.90625 1.078125 2.3125 1.078125l2.171875 0zm15.15686 2.21875q-2.25 0 -3.578125 -1.15625q-1.328125 -1.171875 -1.328125 -3.140625l0 -0.984375q0 -1.921875 1.375 -3.078125q1.375 -1.171875 3.640625 -1.171875l1.96875 0q1.015625 0 2.078125 0.3125q1.078125 0.296875 1.84375 0.8125l0 -2.546875q0 -1.28125 -0.796875 -2.09375q-0.796875 -0.8125 -2.109375 -0.8125l-2.453125 0q-1.328125 0 -2.125 0.609375q-0.796875 0.609375 -0.796875 1.625l-2.203125 0q0 -1.875 1.40625 -3.015625q1.421875 -1.15625 3.71875 -1.15625l2.453125 0q2.265625 0 3.65625 1.34375q1.40625 1.328125 1.40625 3.5l0 10.703125l-2.09375 0l0 -2.140625q-0.703125 1.09375 -1.859375 1.75q-1.140625 0.640625 -2.375 0.640625l-1.828125 0zm1.890625 -1.9375q1.4375 0 2.578125 -0.890625q1.140625 -0.890625 1.53125 -2.359375l0 -1.125q-0.609375 -0.59375 -1.703125 -0.9375q-1.078125 -0.359375 -2.21875 -0.359375l-1.96875 0q-1.25 0 -2.03125 0.65625q-0.78125 0.640625 -0.78125 1.671875l0 0.984375q0 1.078125 0.734375 1.71875q0.734375 0.640625 1.96875 0.640625l1.890625 0zm12.388672 -15.90625q-0.734375 0 -1.203125 -0.453125q-0.453125 -0.46875 -0.453125 -1.203125q0 -0.734375 0.453125 -1.1875q0.46875 -0.46875 1.203125 -0.46875q0.734375 0 1.1875 0.46875q0.46875 0.453125 0.46875 1.1875q0 0.734375 -0.46875 1.203125q-0.453125 0.453125 -1.1875 0.453125zm-1.109375 2.296875l2.21875 0l0 15.296875l-2.21875 0l0 -15.296875zm7.423828 0l2.140625 0l0 2.265625q0.71875 -1.09375 1.84375 -1.796875q1.140625 -0.71875 2.265625 -0.71875l2.09375 0q2.109375 0 3.40625 1.453125q1.3125 1.4375 1.3125 3.765625l0 10.328125l-2.203125 0l0 -10.390625q0 -1.40625 -0.71875 -2.296875q-0.703125 -0.890625 -1.859375 -0.890625l-1.96875 0q-1.4375 0 -2.625 1.140625q-1.171875 1.125 -1.484375 2.90625l0 9.53125l-2.203125 0l0 -15.296875zm18.582275 15.609375q-0.734375 0 -1.203125 -0.453125q-0.453125 -0.46875 -0.453125 -1.203125q0 -0.734375 0.453125 -1.1875q0.46875 -0.46875 1.203125 -0.46875q0.734375 0 1.1875 0.46875q0.46875 0.453125 0.46875 1.1875q0 0.734375 -0.46875 1.203125q-0.453125 0.453125 -1.1875 0.453125z" fill-rule="nonzero"/><path fill="#000000" fill-opacity="0.0" d="m78.03674 138.62466l543.937 0l0 58.173233l-543.937 0z" fill-rule="evenodd"/><path fill="#6555a7" d="m224.05911 152.54716l-0.25 0.171875q-0.46875 0.3125 -0.703125 0.734375q-0.234375 0.421875 -0.234375 0.984375l0 0.78125l-1.15625 0l0 -0.78125q0 -0.890625 0.328125 -1.515625q0.34375 -0.625 1.046875 -1.078125l0.3125 -0.1875l0.65625 0.890625zm2.546875 0l-0.234375 0.171875q-0.484375 0.3125 -0.71875 0.734375q-0.21875 0.421875 -0.21875 0.984375l0 0.78125l-1.15625 0l0 -0.78125q0 -0.890625 0.328125 -1.515625q0.34375 -0.625 1.046875 -1.078125l0.296875 -0.1875l0.65625 0.890625zm7.1200104 7.328125l-4.90625 0l-1.15625 3.109375l-1.203125 0l4.296875 -11.203125l0.546875 0q0.53125 0 0.765625 0.640625l2.46875 6.46875l0.015625 0l0 0.03125l1.546875 4.0625l-1.21875 0l-1.15625 -3.109375zm-4.53125 -0.984375l4.171875 0l-2.078125 -5.5625l-0.015625 0l-2.078125 5.5625zm15.777649 4.09375q-1.265625 0 -1.828125 -0.546875q-0.546875 -0.546875 -0.546875 -1.796875l0 -4.609375l-1.40625 0l0 -1.03125l1.40625 0l0 -2.421875l1.15625 0l0 2.421875l2.078125 0l0 1.03125l-2.078125 0l0 4.609375q0 0.71875 0.28125 1.015625q0.28125 0.296875 0.9375 0.296875l0.859375 0l0 1.03125l-0.859375 0zm5.0762634 0.125q-1.15625 0 -1.859375 -0.609375q-0.703125 -0.609375 -0.703125 -1.625l0 -0.515625q0 -1.0 0.71875 -1.609375q0.734375 -0.609375 1.90625 -0.609375l1.03125 0q0.53125 0 1.078125 0.15625q0.5625 0.15625 0.96875 0.4375l0 -1.328125q0 -0.671875 -0.421875 -1.09375q-0.40625 -0.4375 -1.09375 -0.4375l-1.28125 0q-0.6875 0 -1.109375 0.328125q-0.40625 0.3125 -0.40625 0.84375l-1.15625 0q0 -0.96875 0.734375 -1.5625q0.734375 -0.609375 1.9375 -0.609375l1.28125 0q1.171875 0 1.90625 0.703125q0.734375 0.6875 0.734375 1.828125l0 5.578125l-1.09375 0l0 -1.125q-0.375 0.578125 -0.96875 0.921875q-0.59375 0.328125 -1.234375 0.328125l-0.96875 0zm1.0 -1.0q0.75 0 1.34375 -0.46875q0.59375 -0.46875 0.796875 -1.234375l0 -0.59375q-0.3125 -0.296875 -0.890625 -0.484375q-0.5625 -0.1875 -1.15625 -0.1875l-1.03125 0q-0.65625 0 -1.0625 0.34375q-0.40625 0.328125 -0.40625 0.875l0 0.515625q0 0.5625 0.375 0.90625q0.390625 0.328125 1.03125 0.328125l1.0 0zm8.192886 4.125q-1.0625 0 -1.75 -0.578125q-0.6875 -0.5625 -0.765625 -1.484375l1.15625 0q0.0625 0.46875 0.4375 0.765625q0.375 0.296875 0.921875 0.296875l1.328125 0q0.828125 0 1.28125 -0.546875q0.453125 -0.546875 0.453125 -1.546875l0 -1.234375q-0.34375 0.484375 -0.921875 0.78125q-0.5625 0.296875 -1.09375 0.296875l-1.15625 0q-0.828125 0 -1.46875 -0.375q-0.640625 -0.390625 -1.0 -1.078125q-0.34375 -0.6875 -0.34375 -1.609375l0 -1.859375q0 -1.4375 0.828125 -2.3125q0.828125 -0.875 2.171875 -0.875l1.125 0q0.5 0 1.046875 0.296875q0.546875 0.28125 0.84375 0.71875l0 -0.890625l1.125 0l0 8.140625q0 1.453125 -0.765625 2.265625q-0.765625 0.828125 -2.125 0.828125l-1.328125 0zm1.046875 -4.28125q0.796875 0 1.359375 -0.625q0.578125 -0.625 0.65625 -1.609375l0 -1.96875q-0.0625 -0.8125 -0.59375 -1.328125q-0.53125 -0.53125 -1.265625 -0.53125l-1.09375 0q-0.84375 0 -1.359375 0.59375q-0.515625 0.59375 -0.515625 1.578125l0 1.859375q0 0.90625 0.46875 1.46875q0.46875 0.5625 1.21875 0.5625l1.125 0zm7.8105164 1.03125q-1.1875 0 -1.703125 -0.5q-0.5 -0.515625 -0.5 -1.671875l0 -9.03125l1.15625 0l0 9.03125q0 0.609375 0.234375 0.875q0.25 0.265625 0.8125 0.265625l0.546875 0l0 1.03125l-0.546875 0zm2.944275 -9.1875q-0.375 0 -0.625 -0.234375q-0.234375 -0.234375 -0.234375 -0.625q0 -0.390625 0.234375 -0.625q0.25 -0.234375 0.625 -0.234375q0.390625 0 0.625 0.234375q0.234375 0.234375 0.234375 0.625q0 0.390625 -0.234375 0.625q-0.234375 0.234375 -0.625 0.234375zm-0.578125 1.203125l1.15625 0l0 7.984375l-1.15625 0l0 -7.984375zm3.8787537 0l1.125 0l0 1.1875q0.359375 -0.578125 0.953125 -0.9375q0.59375 -0.375 1.1875 -0.375l1.078125 0q1.109375 0 1.78125 0.75q0.6875 0.75 0.6875 1.96875l0 5.390625l-1.15625 0l0 -5.421875q0 -0.734375 -0.375 -1.203125q-0.359375 -0.46875 -0.96875 -0.46875l-1.015625 0q-0.75 0 -1.375 0.59375q-0.609375 0.59375 -0.765625 1.53125l0 4.96875l-1.15625 0l0 -7.984375zm11.808258 8.109375q-1.34375 0 -2.171875 -0.78125q-0.8125 -0.796875 -0.8125 -2.109375l0 -2.296875q0 -1.375 0.8125 -2.203125q0.828125 -0.84375 2.171875 -0.84375l1.3125 0q1.28125 0 2.0625 0.8125q0.78125 0.8125 0.78125 2.15625l0 1.40625l-5.984375 0l0 0.96875q0 0.828125 0.5 1.359375q0.515625 0.515625 1.328125 0.515625l1.21875 0q0.796875 0 1.28125 -0.4375q0.5 -0.453125 0.5 -1.1875l1.125 0q0 1.1875 -0.796875 1.921875q-0.796875 0.71875 -2.109375 0.71875l-1.21875 0zm3.0 -4.84375l0 -0.421875q0 -0.875 -0.46875 -1.40625q-0.453125 -0.546875 -1.21875 -0.546875l-1.3125 0q-0.8125 0 -1.328125 0.5625q-0.5 0.5625 -0.5 1.46875l0 0.34375l4.828125 0zm2.1445312 5.9375l0.25 -0.15625q0.46875 -0.328125 0.703125 -0.75q0.234375 -0.421875 0.234375 -0.984375l0 -0.78125l1.15625 0l0 0.78125q0 0.890625 -0.34375 1.515625q-0.328125 0.625 -1.03125 1.078125l-0.3125 0.1875l-0.65625 -0.890625zm18.490997 -9.203125l-1.734375 7.0625q-0.125 0.46875 -0.359375 0.703125q-0.21875 0.21875 -0.59375 0.21875l-0.546875 0l-2.0 -6.03125l-2.0625 6.03125l-0.546875 0q-0.375 0 -0.609375 -0.21875q-0.234375 -0.234375 -0.359375 -0.703125l-1.734375 -7.0625l1.21875 0l1.484375 6.703125l2.15625 -6.484375l0.421875 0q0.453125 0 0.625 0.515625l1.953125 5.921875l1.46875 -6.65625l1.21875 0zm1.7242737 -3.21875l1.15625 0l0 4.328125q0.359375 -0.5625 0.9375 -0.890625q0.578125 -0.34375 1.171875 -0.34375l1.109375 0q1.109375 0 1.78125 0.75q0.6875 0.75 0.6875 1.96875l0 5.390625l-1.15625 0l0 -5.421875q0 -0.734375 -0.375 -1.203125q-0.359375 -0.46875 -0.96875 -0.46875l-1.046875 0q-0.75 0 -1.375 0.59375q-0.609375 0.578125 -0.765625 1.484375l0 5.015625l-1.15625 0l0 -11.203125zm11.480896 11.328125q-1.15625 0 -1.859375 -0.609375q-0.703125 -0.609375 -0.703125 -1.625l0 -0.515625q0 -1.0 0.71875 -1.609375q0.734375 -0.609375 1.90625 -0.609375l1.03125 0q0.53125 0 1.078125 0.15625q0.5625 0.15625 0.96875 0.4375l0 -1.328125q0 -0.671875 -0.421875 -1.09375q-0.40625 -0.4375 -1.09375 -0.4375l-1.28125 0q-0.6875 0 -1.109375 0.328125q-0.40625 0.3125 -0.40625 0.84375l-1.15625 0q0 -0.96875 0.734375 -1.5625q0.734375 -0.609375 1.9375 -0.609375l1.28125 0q1.171875 0 1.90625 0.703125q0.734375 0.6875 0.734375 1.828125l0 5.578125l-1.09375 0l0 -1.125q-0.375 0.578125 -0.96875 0.921875q-0.59375 0.328125 -1.234375 0.328125l-0.96875 0zm1.0 -1.0q0.75 0 1.34375 -0.46875q0.59375 -0.46875 0.796875 -1.234375l0 -0.59375q-0.3125 -0.296875 -0.890625 -0.484375q-0.5625 -0.1875 -1.15625 -0.1875l-1.03125 0q-0.65625 0 -1.0625 0.34375q-0.40625 0.328125 -0.40625 0.875l0 0.515625q0 0.5625 0.375 0.90625q0.390625 0.328125 1.03125 0.328125l1.0 0zm8.739777 0.875q-1.265625 0 -1.828125 -0.546875q-0.546875 -0.546875 -0.546875 -1.796875l0 -4.609375l-1.40625 0l0 -1.03125l1.40625 0l0 -2.421875l1.15625 0l0 2.421875l2.078125 0l0 1.03125l-2.078125 0l0 4.609375q0 0.71875 0.28125 1.015625q0.28125 0.296875 0.9375 0.296875l0.859375 0l0 1.03125l-0.859375 0zm9.428253 0.125q-1.15625 0 -1.859375 -0.609375q-0.703125 -0.609375 -0.703125 -1.625l0 -0.515625q0 -1.0 0.71875 -1.609375q0.734375 -0.609375 1.90625 -0.609375l1.03125 0q0.53125 0 1.078125 0.15625q0.5625 0.15625 0.96875 0.4375l0 -1.328125q0 -0.671875 -0.421875 -1.09375q-0.40625 -0.4375 -1.09375 -0.4375l-1.28125 0q-0.6875 0 -1.109375 0.328125q-0.40625 0.3125 -0.40625 0.84375l-1.15625 0q0 -0.96875 0.734375 -1.5625q0.734375 -0.609375 1.9375 -0.609375l1.28125 0q1.171875 0 1.90625 0.703125q0.734375 0.6875 0.734375 1.828125l0 5.578125l-1.09375 0l0 -1.125q-0.375 0.578125 -0.96875 0.921875q-0.59375 0.328125 -1.234375 0.328125l-0.96875 0zm1.0 -1.0q0.75 0 1.34375 -0.46875q0.59375 -0.46875 0.796875 -1.234375l0 -0.59375q-0.3125 -0.296875 -0.890625 -0.484375q-0.5625 -0.1875 -1.15625 -0.1875l-1.03125 0q-0.65625 0 -1.0625 0.34375q-0.40625 0.328125 -0.40625 0.875l0 0.515625q0 0.5625 0.375 0.90625q0.390625 0.328125 1.03125 0.328125l1.0 0zm5.599121 -7.109375l1.125 0l0 1.234375q0.3125 -0.5625 0.953125 -0.90625q0.65625 -0.359375 1.359375 -0.359375l0.703125 0l0 1.046875l-0.703125 0q-1.03125 0 -1.65625 0.640625q-0.625 0.640625 -0.625 1.71875l0 4.609375l-1.15625 0l0 -7.984375zm8.080261 8.109375q-1.34375 0 -2.171875 -0.78125q-0.8125 -0.796875 -0.8125 -2.109375l0 -2.296875q0 -1.375 0.8125 -2.203125q0.828125 -0.84375 2.171875 -0.84375l1.3125 0q1.28125 0 2.0625 0.8125q0.78125 0.8125 0.78125 2.15625l0 1.40625l-5.984375 0l0 0.96875q0 0.828125 0.5 1.359375q0.515625 0.515625 1.328125 0.515625l1.21875 0q0.796875 0 1.28125 -0.4375q0.5 -0.453125 0.5 -1.1875l1.125 0q0 1.1875 -0.796875 1.921875q-0.796875 0.71875 -2.109375 0.71875l-1.21875 0zm3.0 -4.84375l0 -0.421875q0 -0.875 -0.46875 -1.40625q-0.453125 -0.546875 -1.21875 -0.546875l-1.3125 0q-0.8125 0 -1.328125 0.5625q-0.5 0.5625 -0.5 1.46875l0 0.34375l4.828125 0zm9.91391 7.96875q-1.0625 0 -1.75 -0.578125q-0.6875 -0.5625 -0.765625 -1.484375l1.15625 0q0.0625 0.46875 0.4375 0.765625q0.375 0.296875 0.921875 0.296875l1.25 0q0.828125 0 1.28125 -0.546875q0.453125 -0.546875 0.453125 -1.546875l0 -1.46875q-0.375 0.578125 -0.96875 0.953125q-0.578125 0.359375 -1.15625 0.359375l-1.03125 0q-1.109375 0 -1.8125 -0.75q-0.6875 -0.75 -0.6875 -1.96875l0 -5.265625l1.140625 0l0 5.296875q0 0.75 0.375 1.203125q0.390625 0.453125 0.984375 0.453125l1.0 0q0.734375 0 1.359375 -0.578125q0.625 -0.59375 0.796875 -1.5l0 -4.875l1.15625 0l0 8.140625q0 1.453125 -0.765625 2.265625q-0.765625 0.828125 -2.125 0.828125l-1.25 0zm9.230133 -3.125q-1.34375 0 -2.171875 -0.828125q-0.8125 -0.828125 -0.8125 -2.1875l0 -2.203125q0 -1.359375 0.828125 -2.1875q0.828125 -0.828125 2.1875 -0.828125l1.3125 0q1.359375 0 2.171875 0.828125q0.828125 0.828125 0.828125 2.1875l0 2.203125q0 1.359375 -0.828125 2.1875q-0.828125 0.828125 -2.203125 0.828125l-1.3125 0zm1.3125 -1.015625q0.859375 0 1.375 -0.546875q0.515625 -0.5625 0.515625 -1.453125l0 -2.203125q0 -0.890625 -0.515625 -1.4375q-0.515625 -0.5625 -1.34375 -0.5625l-1.3125 0q-0.828125 0 -1.34375 0.5625q-0.515625 0.546875 -0.515625 1.4375l0 2.203125q0 0.90625 0.5 1.453125q0.5 0.546875 1.328125 0.546875l1.3125 0zm7.526306 1.015625q-1.09375 0 -1.78125 -0.75q-0.6875 -0.75 -0.6875 -1.96875l0 -5.390625l1.140625 0l0 5.421875q0 0.75 0.375 1.21875q0.375 0.453125 0.953125 0.453125l1.0 0q0.734375 0 1.359375 -0.59375q0.625 -0.59375 0.796875 -1.484375l0 -5.015625l1.15625 0l0 7.984375l-1.125 0l0 -1.21875q-0.359375 0.578125 -0.96875 0.96875q-0.609375 0.375 -1.1875 0.375l-1.03125 0zm13.201904 0q-1.15625 0 -1.859375 -0.609375q-0.703125 -0.609375 -0.703125 -1.625l0 -0.515625q0 -1.0 0.71875 -1.609375q0.734375 -0.609375 1.90625 -0.609375l1.03125 0q0.53125 0 1.078125 0.15625q0.5625 0.15625 0.96875 0.4375l0 -1.328125q0 -0.671875 -0.421875 -1.09375q-0.40625 -0.4375 -1.09375 -0.4375l-1.28125 0q-0.6875 0 -1.109375 0.328125q-0.40625 0.3125 -0.40625 0.84375l-1.15625 0q0 -0.96875 0.734375 -1.5625q0.734375 -0.609375 1.9375 -0.609375l1.28125 0q1.171875 0 1.90625 0.703125q0.734375 0.6875 0.734375 1.828125l0 5.578125l-1.09375 0l0 -1.125q-0.375 0.578125 -0.96875 0.921875q-0.59375 0.328125 -1.234375 0.328125l-0.96875 0zm1.0 -1.0q0.75 0 1.34375 -0.46875q0.59375 -0.46875 0.796875 -1.234375l0 -0.59375q-0.3125 -0.296875 -0.890625 -0.484375q-0.5625 -0.1875 -1.15625 -0.1875l-1.03125 0q-0.65625 0 -1.0625 0.34375q-0.40625 0.328125 -0.40625 0.875l0 0.515625q0 0.5625 0.375 0.90625q0.390625 0.328125 1.03125 0.328125l1.0 0zm12.02475 1.0q-1.21875 0 -1.953125 -0.6875q-0.734375 -0.6875 -0.734375 -1.8125l1.125 0q0 0.671875 0.421875 1.09375q0.4375 0.421875 1.140625 0.421875l1.390625 0q0.6875 0 1.125 -0.28125q0.4375 -0.28125 0.4375 -0.734375l0 -0.546875q0 -0.296875 -0.25 -0.53125q-0.234375 -0.234375 -0.625 -0.3125l-2.765625 -0.484375q-0.828125 -0.140625 -1.34375 -0.625q-0.5 -0.484375 -0.5 -1.140625l0 -0.53125q0 -0.921875 0.703125 -1.484375q0.71875 -0.578125 1.859375 -0.578125l1.375 0q1.125 0 1.8125 0.640625q0.6875 0.625 0.6875 1.65625l-1.125 0q-0.015625 -0.59375 -0.390625 -0.953125q-0.375 -0.359375 -0.984375 -0.359375l-1.375 0q-0.640625 0 -1.03125 0.296875q-0.375 0.296875 -0.375 0.78125l0 0.46875q0 0.296875 0.265625 0.546875q0.265625 0.234375 0.6875 0.296875l2.75 0.484375q0.796875 0.140625 1.28125 0.625q0.484375 0.46875 0.484375 1.140625l0 0.640625q0 0.890625 -0.75 1.4375q-0.734375 0.53125 -1.953125 0.53125l-1.390625 0zm9.09903 -0.125q-1.265625 0 -1.828125 -0.546875q-0.546875 -0.546875 -0.546875 -1.796875l0 -4.609375l-1.40625 0l0 -1.03125l1.40625 0l0 -2.421875l1.15625 0l0 2.421875l2.078125 0l0 1.03125l-2.078125 0l0 4.609375q0 0.71875 0.28125 1.015625q0.28125 0.296875 0.9375 0.296875l0.859375 0l0 1.03125l-0.859375 0zm5.0762634 0.125q-1.15625 0 -1.859375 -0.609375q-0.703125 -0.609375 -0.703125 -1.625l0 -0.515625q0 -1.0 0.71875 -1.609375q0.734375 -0.609375 1.90625 -0.609375l1.03125 0q0.53125 0 1.078125 0.15625q0.5625 0.15625 0.96875 0.4375l0 -1.328125q0 -0.671875 -0.421875 -1.09375q-0.40625 -0.4375 -1.09375 -0.4375l-1.28125 0q-0.6875 0 -1.109375 0.328125q-0.40625 0.3125 -0.40625 0.84375l-1.15625 0q0 -0.96875 0.734375 -1.5625q0.734375 -0.609375 1.9375 -0.609375l1.28125 0q1.171875 0 1.90625 0.703125q0.734375 0.6875 0.734375 1.828125l0 5.578125l-1.09375 0l0 -1.125q-0.375 0.578125 -0.96875 0.921875q-0.59375 0.328125 -1.234375 0.328125l-0.96875 0zm1.0 -1.0q0.75 0 1.34375 -0.46875q0.59375 -0.46875 0.796875 -1.234375l0 -0.59375q-0.3125 -0.296875 -0.890625 -0.484375q-0.5625 -0.1875 -1.15625 -0.1875l-1.03125 0q-0.65625 0 -1.0625 0.34375q-0.40625 0.328125 -0.40625 0.875l0 0.515625q0 0.5625 0.375 0.90625q0.390625 0.328125 1.03125 0.328125l1.0 0zm5.5991516 -7.109375l1.125 0l0 1.234375q0.3125 -0.5625 0.953125 -0.90625q0.65625 -0.359375 1.359375 -0.359375l0.703125 0l0 1.046875l-0.703125 0q-1.03125 0 -1.65625 0.640625q-0.625 0.640625 -0.625 1.71875l0 4.609375l-1.15625 0l0 -7.984375zm8.820618 7.984375q-1.265625 0 -1.828125 -0.546875q-0.546875 -0.546875 -0.546875 -1.796875l0 -4.609375l-1.40625 0l0 -1.03125l1.40625 0l0 -2.421875l1.15625 0l0 2.421875l2.078125 0l0 1.03125l-2.078125 0l0 4.609375q0 0.71875 0.28125 1.015625q0.28125 0.296875 0.9375 0.296875l0.859375 0l0 1.03125l-0.859375 0zm5.2503967 0.125q-1.09375 0 -1.78125 -0.75q-0.6875 -0.75 -0.6875 -1.96875l0 -5.390625l1.140625 0l0 5.421875q0 0.75 0.375 1.21875q0.375 0.453125 0.953125 0.453125l1.0 0q0.734375 0 1.359375 -0.59375q0.625 -0.59375 0.796875 -1.484375l0 -5.015625l1.15625 0l0 7.984375l-1.125 0l0 -1.21875q-0.359375 0.578125 -0.96875 0.96875q-0.609375 0.375 -1.1875 0.375l-1.03125 0zm6.7450256 -8.109375l1.125 0l0 1.09375q0.328125 -0.546875 0.875 -0.875q0.5625 -0.34375 1.125 -0.34375l1.140625 0q1.28125 0 2.078125 0.8125q0.796875 0.8125 0.796875 2.15625l0 1.96875q0 1.484375 -0.8125 2.390625q-0.8125 0.90625 -2.140625 0.90625l-1.15625 0q-0.484375 0 -1.03125 -0.28125q-0.546875 -0.28125 -0.84375 -0.71875l0 4.0625l-1.15625 0l0 -11.171875zm4.15625 7.09375q0.828125 0 1.328125 -0.625q0.5 -0.625 0.5 -1.65625l0 -1.96875q0 -0.875 -0.484375 -1.40625q-0.484375 -0.546875 -1.265625 -0.546875l-1.109375 0q-0.6875 0 -1.234375 0.53125q-0.53125 0.515625 -0.734375 1.328125l0 2.40625q0.109375 0.84375 0.640625 1.390625q0.546875 0.546875 1.296875 0.546875l1.0625 0zm7.7480164 -2.59375q0 -0.65625 0.25 -1.15625q0.25 -0.5 0.59375 -0.84375q0.359375 -0.34375 0.90625 -0.765625q0.671875 -0.515625 0.984375 -0.890625q0.328125 -0.390625 0.328125 -0.921875l0 -0.578125q0 -0.734375 -0.5 -1.171875q-0.484375 -0.4375 -1.28125 -0.4375l-1.375 0q-0.90625 0 -1.453125 0.53125q-0.53125 0.53125 -0.53125 1.421875l-1.15625 0q0 -1.359375 0.859375 -2.1875q0.875 -0.828125 2.28125 -0.828125l1.375 0q1.34375 0 2.15625 0.734375q0.8125 0.734375 0.8125 1.9375l0 0.578125q0 0.5625 -0.21875 0.984375q-0.203125 0.421875 -0.515625 0.71875q-0.296875 0.296875 -0.8125 0.703125q-0.515625 0.390625 -0.8125 0.671875q-0.296875 0.28125 -0.5 0.6875q-0.203125 0.40625 -0.203125 0.9375l0 0.78125l-1.1875 0l0 -0.90625zm0.609375 3.640625q-0.390625 0 -0.640625 -0.234375q-0.234375 -0.234375 -0.234375 -0.625q0 -0.390625 0.234375 -0.625q0.25 -0.234375 0.640625 -0.234375q0.375 0 0.609375 0.234375q0.25 0.234375 0.25 0.625q0 0.390625 -0.25 0.625q-0.234375 0.234375 -0.609375 0.234375zm5.2427673 -8.6875l0.25 -0.15625q0.46875 -0.328125 0.703125 -0.75q0.234375 -0.421875 0.234375 -0.984375l0 -0.78125l1.15625 0l0 0.78125q0 0.890625 -0.34375 1.515625q-0.328125 0.625 -1.03125 1.078125l-0.3125 0.1875l-0.65625 -0.890625zm2.5625 0l0.25 -0.15625q0.46875 -0.328125 0.703125 -0.75q0.234375 -0.421875 0.234375 -0.984375l0 -0.78125l1.15625 0l0 0.78125q0 0.890625 -0.34375 1.515625q-0.328125 0.625 -1.03125 1.078125l-0.3125 0.1875l-0.65625 -0.890625z" fill-rule="nonzero"/><path fill="#6555a7" d="m285.84375 177.8878l-4.140625 -6.90625l1.28125 0l3.4375 5.828125l3.453125 -5.828125l1.28125 0l-4.140625 6.90625l0 4.296875l-1.171875 0l0 -4.296875zm7.740387 4.421875q-1.34375 0 -2.171875 -0.78125q-0.8125 -0.796875 -0.8125 -2.109375l0 -2.296875q0 -1.375 0.8125 -2.203125q0.828125 -0.84375 2.171875 -0.84375l1.3125 0q1.28125 0 2.0625 0.8125q0.78125 0.8125 0.78125 2.15625l0 1.40625l-5.984375 0l0 0.96875q0 0.828125 0.5 1.359375q0.515625 0.515625 1.328125 0.515625l1.21875 0q0.796875 0 1.28125 -0.4375q0.5 -0.453125 0.5 -1.1875l1.125 0q0 1.1875 -0.796875 1.921875q-0.796875 0.71875 -2.109375 0.71875l-1.21875 0zm3.0 -4.84375l0 -0.421875q0 -0.875 -0.46875 -1.40625q-0.453125 -0.546875 -1.21875 -0.546875l-1.3125 0q-0.8125 0 -1.328125 0.5625q-0.5 0.5625 -0.5 1.46875l0 0.34375l4.828125 0zm5.4414062 4.84375q-1.21875 0 -1.953125 -0.6875q-0.734375 -0.6875 -0.734375 -1.8125l1.125 0q0 0.671875 0.421875 1.09375q0.4375 0.421875 1.140625 0.421875l1.390625 0q0.6875 0 1.125 -0.28125q0.4375 -0.28125 0.4375 -0.734375l0 -0.546875q0 -0.296875 -0.25 -0.53125q-0.234375 -0.234375 -0.625 -0.3125l-2.765625 -0.484375q-0.828125 -0.140625 -1.34375 -0.625q-0.5 -0.484375 -0.5 -1.140625l0 -0.53125q0 -0.921875 0.703125 -1.484375q0.71875 -0.578125 1.859375 -0.578125l1.375 0q1.125 0 1.8125 0.640625q0.6875 0.625 0.6875 1.65625l-1.125 0q-0.015625 -0.59375 -0.390625 -0.953125q-0.375 -0.359375 -0.984375 -0.359375l-1.375 0q-0.640625 0 -1.03125 0.296875q-0.375 0.296875 -0.375 0.78125l0 0.46875q0 0.296875 0.265625 0.546875q0.265625 0.234375 0.6875 0.296875l2.75 0.484375q0.796875 0.140625 1.28125 0.625q0.484375 0.46875 0.484375 1.140625l0 0.640625q0 0.890625 -0.75 1.4375q-0.734375 0.53125 -1.953125 0.53125l-1.390625 0zm5.0231323 1.09375l0.25 -0.15625q0.46875 -0.328125 0.703125 -0.75q0.234375 -0.421875 0.234375 -0.984375l0 -0.78125l1.15625 0l0 0.78125q0 0.890625 -0.34375 1.515625q-0.328125 0.625 -1.03125 1.078125l-0.3125 0.1875l-0.65625 -0.890625zm8.866028 -12.421875l1.1875 0l0 11.203125l-1.1875 0l0 -11.203125zm10.302124 11.328125q-1.15625 0 -1.859375 -0.609375q-0.703125 -0.609375 -0.703125 -1.625l0 -0.515625q0 -1.0 0.71875 -1.609375q0.734375 -0.609375 1.90625 -0.609375l1.03125 0q0.53125 0 1.078125 0.15625q0.5625 0.15625 0.96875 0.4375l0 -1.328125q0 -0.671875 -0.421875 -1.09375q-0.40625 -0.4375 -1.09375 -0.4375l-1.28125 0q-0.6875 0 -1.109375 0.328125q-0.40625 0.3125 -0.40625 0.84375l-1.15625 0q0 -0.96875 0.734375 -1.5625q0.734375 -0.609375 1.9375 -0.609375l1.28125 0q1.171875 0 1.90625 0.703125q0.734375 0.6875 0.734375 1.828125l0 5.578125l-1.09375 0l0 -1.125q-0.375 0.578125 -0.96875 0.921875q-0.59375 0.328125 -1.234375 0.328125l-0.96875 0zm1.0 -1.0q0.75 0 1.34375 -0.46875q0.59375 -0.46875 0.796875 -1.234375l0 -0.59375q-0.3125 -0.296875 -0.890625 -0.484375q-0.5625 -0.1875 -1.15625 -0.1875l-1.03125 0q-0.65625 0 -1.0625 0.34375q-0.40625 0.328125 -0.40625 0.875l0 0.515625q0 0.5625 0.375 0.90625q0.390625 0.328125 1.03125 0.328125l1.0 0zm14.349152 -7.234375q1.0625 0 1.671875 0.6875q0.609375 0.671875 0.609375 1.875l0 5.546875l-1.140625 0l0 -5.578125q0 -0.703125 -0.328125 -1.109375q-0.3125 -0.40625 -0.84375 -0.40625l-0.90625 0q-0.6875 0 -1.140625 0.46875q-0.453125 0.46875 -0.578125 1.3125l0 5.3125l-1.15625 0l0 -5.484375q0 -0.75 -0.296875 -1.171875q-0.296875 -0.4375 -0.796875 -0.4375l-0.921875 0q-0.65625 0 -1.15625 0.578125q-0.484375 0.578125 -0.609375 1.5l0 5.015625l-1.15625 0l0 -7.984375l1.125 0l0 1.15625q0.3125 -0.609375 0.78125 -0.9375q0.484375 -0.34375 1.015625 -0.34375l0.953125 0q0.671875 0 1.15625 0.328125q0.484375 0.328125 0.734375 0.953125q0.375 -0.640625 0.890625 -0.953125q0.515625 -0.328125 1.109375 -0.328125l0.984375 0zm11.082886 8.234375q-1.15625 0 -1.859375 -0.609375q-0.703125 -0.609375 -0.703125 -1.625l0 -0.515625q0 -1.0 0.71875 -1.609375q0.734375 -0.609375 1.90625 -0.609375l1.03125 0q0.53125 0 1.078125 0.15625q0.5625 0.15625 0.96875 0.4375l0 -1.328125q0 -0.671875 -0.421875 -1.09375q-0.40625 -0.4375 -1.09375 -0.4375l-1.28125 0q-0.6875 0 -1.109375 0.328125q-0.40625 0.3125 -0.40625 0.84375l-1.15625 0q0 -0.96875 0.734375 -1.5625q0.734375 -0.609375 1.9375 -0.609375l1.28125 0q1.171875 0 1.90625 0.703125q0.734375 0.6875 0.734375 1.828125l0 5.578125l-1.09375 0l0 -1.125q-0.375 0.578125 -0.96875 0.921875q-0.59375 0.328125 -1.234375 0.328125l-0.96875 0zm1.0 -1.0q0.75 0 1.34375 -0.46875q0.59375 -0.46875 0.796875 -1.234375l0 -0.59375q-0.3125 -0.296875 -0.890625 -0.484375q-0.5625 -0.1875 -1.15625 -0.1875l-1.03125 0q-0.65625 0 -1.0625 0.34375q-0.40625 0.328125 -0.40625 0.875l0 0.515625q0 0.5625 0.375 0.90625q0.390625 0.328125 1.03125 0.328125l1.0 0zm12.02478 1.0q-1.21875 0 -1.953125 -0.6875q-0.734375 -0.6875 -0.734375 -1.8125l1.125 0q0 0.671875 0.421875 1.09375q0.4375 0.421875 1.140625 0.421875l1.390625 0q0.6875 0 1.125 -0.28125q0.4375 -0.28125 0.4375 -0.734375l0 -0.546875q0 -0.296875 -0.25 -0.53125q-0.234375 -0.234375 -0.625 -0.3125l-2.765625 -0.484375q-0.828125 -0.140625 -1.34375 -0.625q-0.5 -0.484375 -0.5 -1.140625l0 -0.53125q0 -0.921875 0.703125 -1.484375q0.71875 -0.578125 1.859375 -0.578125l1.375 0q1.125 0 1.8125 0.640625q0.6875 0.625 0.6875 1.65625l-1.125 0q-0.015625 -0.59375 -0.390625 -0.953125q-0.375 -0.359375 -0.984375 -0.359375l-1.375 0q-0.640625 0 -1.03125 0.296875q-0.375 0.296875 -0.375 0.78125l0 0.46875q0 0.296875 0.265625 0.546875q0.265625 0.234375 0.6875 0.296875l2.75 0.484375q0.796875 0.140625 1.28125 0.625q0.484375 0.46875 0.484375 1.140625l0 0.640625q0 0.890625 -0.75 1.4375q-0.734375 0.53125 -1.953125 0.53125l-1.390625 0zm9.098999 -0.125q-1.265625 0 -1.828125 -0.546875q-0.546875 -0.546875 -0.546875 -1.796875l0 -4.609375l-1.40625 0l0 -1.03125l1.40625 0l0 -2.421875l1.15625 0l0 2.421875l2.078125 0l0 1.03125l-2.078125 0l0 4.609375q0 0.71875 0.28125 1.015625q0.28125 0.296875 0.9375 0.296875l0.859375 0l0 1.03125l-0.859375 0zm5.076294 0.125q-1.15625 0 -1.859375 -0.609375q-0.703125 -0.609375 -0.703125 -1.625l0 -0.515625q0 -1.0 0.71875 -1.609375q0.734375 -0.609375 1.90625 -0.609375l1.03125 0q0.53125 0 1.078125 0.15625q0.5625 0.15625 0.96875 0.4375l0 -1.328125q0 -0.671875 -0.421875 -1.09375q-0.40625 -0.4375 -1.09375 -0.4375l-1.28125 0q-0.6875 0 -1.109375 0.328125q-0.40625 0.3125 -0.40625 0.84375l-1.15625 0q0 -0.96875 0.734375 -1.5625q0.734375 -0.609375 1.9375 -0.609375l1.28125 0q1.171875 0 1.90625 0.703125q0.734375 0.6875 0.734375 1.828125l0 5.578125l-1.09375 0l0 -1.125q-0.375 0.578125 -0.96875 0.921875q-0.59375 0.328125 -1.234375 0.328125l-0.96875 0zm1.0 -1.0q0.75 0 1.34375 -0.46875q0.59375 -0.46875 0.796875 -1.234375l0 -0.59375q-0.3125 -0.296875 -0.890625 -0.484375q-0.5625 -0.1875 -1.15625 -0.1875l-1.03125 0q-0.65625 0 -1.0625 0.34375q-0.40625 0.328125 -0.40625 0.875l0 0.515625q0 0.5625 0.375 0.90625q0.390625 0.328125 1.03125 0.328125l1.0 0zm5.599121 -7.109375l1.125 0l0 1.234375q0.3125 -0.5625 0.953125 -0.90625q0.65625 -0.359375 1.359375 -0.359375l0.703125 0l0 1.046875l-0.703125 0q-1.03125 0 -1.65625 0.640625q-0.625 0.640625 -0.625 1.71875l0 4.609375l-1.15625 0l0 -7.984375zm8.820618 7.984375q-1.265625 0 -1.828125 -0.546875q-0.546875 -0.546875 -0.546875 -1.796875l0 -4.609375l-1.40625 0l0 -1.03125l1.40625 0l0 -2.421875l1.15625 0l0 2.421875l2.078125 0l0 1.03125l-2.078125 0l0 4.609375q0 0.71875 0.28125 1.015625q0.28125 0.296875 0.9375 0.296875l0.859375 0l0 1.03125l-0.859375 0zm5.2504272 0.125q-1.09375 0 -1.78125 -0.75q-0.6875 -0.75 -0.6875 -1.96875l0 -5.390625l1.140625 0l0 5.421875q0 0.75 0.375 1.21875q0.375 0.453125 0.953125 0.453125l1.0 0q0.734375 0 1.359375 -0.59375q0.625 -0.59375 0.796875 -1.484375l0 -5.015625l1.15625 0l0 7.984375l-1.125 0l0 -1.21875q-0.359375 0.578125 -0.96875 0.96875q-0.609375 0.375 -1.1875 0.375l-1.03125 0zm6.744995 -8.109375l1.125 0l0 1.09375q0.328125 -0.546875 0.875 -0.875q0.5625 -0.34375 1.125 -0.34375l1.140625 0q1.28125 0 2.078125 0.8125q0.796875 0.8125 0.796875 2.15625l0 1.96875q0 1.484375 -0.8125 2.390625q-0.8125 0.90625 -2.140625 0.90625l-1.15625 0q-0.484375 0 -1.03125 -0.28125q-0.546875 -0.28125 -0.84375 -0.71875l0 4.0625l-1.15625 0l0 -11.171875zm4.15625 7.09375q0.828125 0 1.328125 -0.625q0.5 -0.625 0.5 -1.65625l0 -1.96875q0 -0.875 -0.484375 -1.40625q-0.484375 -0.546875 -1.265625 -0.546875l-1.109375 0q-0.6875 0 -1.234375 0.53125q-0.53125 0.515625 -0.734375 1.328125l0 2.40625q0.109375 0.84375 0.640625 1.390625q0.546875 0.546875 1.296875 0.546875l1.0625 0zm5.38266 1.046875q-0.390625 0 -0.640625 -0.234375q-0.234375 -0.234375 -0.234375 -0.625q0 -0.390625 0.234375 -0.625q0.25 -0.234375 0.640625 -0.234375q0.375 0 0.609375 0.234375q0.25 0.234375 0.25 0.625q0 0.390625 -0.25 0.625q-0.234375 0.234375 -0.609375 0.234375z" fill-rule="nonzero"/></g></svg>