<svg version="1.1" viewBox="0.0 0.0 900.0 100.0" fill="none" stroke="none" stroke-linecap="square" stroke-miterlimit="10" xmlns:xlink="http://www.w3.org/1999/xlink" xmlns="http://www.w3.org/2000/svg"><clipPath id="g30ebd71f3c9_0_60.0"><path d="m0 0l900.0 0l0 100.0l-900.0 0l0 -100.0z" clip-rule="nonzero"/></clipPath><g clip-path="url(#g30ebd71f3c9_0_60.0)"><path fill="#000000" fill-opacity="0.0" d="m0 0l900.0 0l0 100.0l-900.0 0z" fill-rule="evenodd"/><path fill="#385ae0" d="m318.62747 49.990177l6.0793457 10.535427l12.15625 0l6.0793457 -10.535427l-6.0793457 -10.535427l-12.15625 0z" fill-rule="evenodd"/><path fill="#385ae0" d="m601.43225 89.99467c6.7036133 0 12.085999 -1.6243591 16.146973 -4.8730774c4.060974 -3.2365952 6.0914917 -7.570236 6.0914917 -13.000931l0 -6.036789c0 -4.618515 -1.5637817 -8.455151 -4.691345 -11.509914c-3.1275635 -3.0547638 -7.5219727 -5.0609665 -13.183105 -6.018612l-20.110962 -3.3638763c-3.430664 -0.5212517 -6.1278687 -1.6789093 -8.091675 -3.4729767c-1.9759521 -1.7819443 -2.9639282 -3.9396706 -2.9639282 -6.4731865l0 -7.1459656c0 -3.2002296 1.3394775 -5.7882957 4.0185547 -7.7641907c2.679016 -1.9758968 6.2127075 -2.963848 10.601013 -2.963848l12.401184 0c4.4731445 0 8.073486 1.4304028 10.801025 4.291216c2.715393 2.8729324 4.07312 6.6186543 4.07312 11.237165l8.037109 0c0 -4.533661 -0.94555664 -8.533945 -2.83667 -12.000856c-1.9031982 -3.4669113 -4.5700684 -6.151949 -8.000732 -8.05512c-3.430603 -1.8910446 -7.376465 -2.836567 -11.837463 -2.836567l-12.855774 0c-6.776428 0 -12.249634 1.654664 -16.419739 4.963991c-4.170105 3.3214455 -6.255127 7.6975136 -6.255127 13.12821l0 7.1459656c0 4.5457764 1.6000977 8.2915 4.800415 11.237164c3.2003174 2.9456635 7.709839 4.939747 13.528564 5.9822464l19.983704 3.454792c3.3579102 0.5939827 5.9884644 1.7819443 7.8916626 3.5638885c1.8911133 1.7940712 2.83667 3.9942284 2.83667 6.6004753l0 6.036789c0 3.2002335 -1.2667847 5.745865 -3.800415 7.6369095c-2.5335693 1.9031677 -5.921753 2.8547516 -10.164551 2.8547516l-12.619385 0c-3.9519043 0 -7.1158447 -1.2303925 -9.491821 -3.6911697c-2.3881226 -2.4486618 -3.5821533 -5.7216263 -3.5821533 -9.818886l-8.037109 0c0 6.2549896 1.9395752 11.297775 5.8187256 15.128349c3.8670044 3.8427048 8.964478 5.7640533 15.292358 5.7640533z" fill-rule="evenodd"/><path fill="#385ae0" d="m550.71313 89.10369l0 -78.20558l-8.273499 0l0 78.20558z" fill-rule="evenodd"/><path fill="#385ae0" d="m529.4825 89.10369l-26.58435 -38.33001l27.711731 -39.875572l-9.273621 0l-23.129456 33.18419l-23.020386 -33.18419l-9.27359 0l27.7117 39.875572l-26.58432 38.33001l9.16449 0l22.002106 -31.511341l22.002075 31.511341z" fill-rule="evenodd"/><path fill="#385ae0" d="m454.07565 89.10369l0 -78.20558l-8.273529 0l0 78.20558z" fill-rule="evenodd"/><path fill="#385ae0" d="m406.36975 89.99467c6.703644 0 12.085999 -1.6243591 16.146973 -4.8730774c4.0610046 -3.2365952 6.0914917 -7.570236 6.0914917 -13.000931l0 -6.036789c0 -4.618515 -1.5637817 -8.455151 -4.691345 -11.509914c-3.1275635 -3.0547638 -7.521942 -5.0609665 -13.183075 -6.018612l-20.110992 -3.3638763c-3.4306335 -0.5212517 -6.1278687 -1.6789093 -8.091675 -3.4729767c-1.9759521 -1.7819443 -2.9639282 -3.9396706 -2.9639282 -6.4731865l0 -7.1459656c0 -3.2002296 1.339508 -5.7882957 4.0185547 -7.7641907c2.6790466 -1.9758968 6.212738 -2.963848 10.601013 -2.963848l12.401184 0c4.4731445 0 8.073486 1.4304028 10.801025 4.291216c2.715393 2.8729324 4.07312 6.6186543 4.07312 11.237165l8.037109 0c0 -4.533661 -0.9455261 -8.533945 -2.8366394 -12.000856c-1.9031982 -3.4669113 -4.5701294 -6.151949 -8.000732 -8.05512c-3.4306335 -1.8910446 -7.376465 -2.836567 -11.837494 -2.836567l-12.855774 0c-6.7763977 0 -12.249634 1.654664 -16.419739 4.963991c-4.170105 3.3214455 -6.255127 7.6975136 -6.255127 13.12821l0 7.1459656c0 4.5457764 1.6001282 8.2915 4.8004456 11.237164c3.2003174 2.9456635 7.7098083 4.939747 13.528564 5.9822464l19.983704 3.454792c3.3578796 0.5939827 5.988434 1.7819443 7.8916626 3.5638885c1.8910828 1.7940712 2.8366394 3.9942284 2.8366394 6.6004753l0 6.036789c0 3.2002335 -1.2667847 5.745865 -3.8003845 7.6369095c-2.5335693 1.9031677 -5.921753 2.8547516 -10.164581 2.8547516l-12.619385 0c-3.9519043 0 -7.115814 -1.2303925 -9.491821 -3.6911697c-2.388092 -2.4486618 -3.5821533 -5.7216263 -3.5821533 -9.818886l-8.037109 0c0 6.2549896 1.9395752 11.297775 5.8187256 15.128349c3.867035 3.8427048 8.964478 5.7640533 15.292358 5.7640533z" fill-rule="evenodd"/><path fill="#3d85c6" d="m844.4341 53.142036l0 -2.3030357l-5.6140747 0l0 -18.218632l-2.526123 0l0 18.218632l-5.609497 0l0 2.3030357z" fill-rule="evenodd"/><path fill="#3d85c6" d="m826.5302 53.114616l0 -20.494247l-2.526123 0l0 9.431465l-6.5687866 0l0 -9.431465l-2.526123 0l0 20.494247l2.526123 0l0 -8.759747l6.5687866 0l0 8.759747z" fill-rule="evenodd"/><path fill="#3d85c6" d="m809.49426 53.114616l0 -20.494247l-11.790039 0l0 2.303032l9.291382 0l0 7.270088l-8.309265 0l0 2.2756157l8.309265 0l0 6.3424797l-9.291382 0l0 2.303032z" fill-rule="evenodd"/><path fill="#3d85c6" d="m777.9165 53.114616l-2.3570557 -20.494247l-3.170227 0l-1.882019 15.440372c-0.05480957 0.43257904 -0.10046387 0.854496 -0.13702393 1.2657547c-0.039611816 0.41125488 -0.082214355 0.7935715 -0.12792969 1.146946c-0.045654297 0.35642242 -0.07763672 0.6473465 -0.09588623 0.87277603c-0.021362305 -0.22542953 -0.05029297 -0.5163536 -0.08679199 -0.87277603c-0.03656006 -0.35337448 -0.077697754 -0.7356911 -0.12335205 -1.146946c-0.04876709 -0.4112587 -0.09136963 -0.83317566 -0.12792969 -1.2657547l-1.7404175 -15.440372l-3.170166 0l-2.416504 20.494247l2.3023071 0l1.5987549 -15.161633c0.039611816 -0.41125488 0.08227539 -0.83774185 0.12792969 -1.2794609c0.045654297 -0.4386711 0.083740234 -0.8544998 0.11419678 -1.2474747c0.027404785 -0.39297867 0.050231934 -0.720459 0.06854248 -0.98244476c0.018249512 0.26198578 0.051757812 0.5894661 0.10046387 0.98244476c0.045715332 0.39297485 0.09136963 0.80880356 0.13708496 1.2474747c0.045654297 0.44171906 0.09741211 0.868206 0.15527344 1.2794609l1.7404175 15.161633l2.6083374 0l1.9094238 -15.161633c0.05480957 -0.41125488 0.10662842 -0.83774185 0.15533447 -1.2794609c0.045654297 -0.4386711 0.083740234 -0.8544998 0.11419678 -1.2474747c0.027404785 -0.39297867 0.059387207 -0.720459 0.095947266 -0.98244476c0 0.26198578 0.013671875 0.5894661 0.04107666 0.98244476c0.027404785 0.39297485 0.060913086 0.80880356 0.1005249 1.2474747c0.036499023 0.44171906 0.07305908 0.868206 0.10961914 1.2794609l1.5440063 15.161633z" fill-rule="evenodd"/><path fill="#3d85c6" d="m753.36163 51.12231c-1.1054688 0 -1.9520874 -0.3137703 -2.539795 -0.9413185c-0.5908203 -0.6275444 -0.88623047 -1.5216446 -0.88623047 -2.6823006l0 -9.262398c0 -1.1606522 0.29541016 -2.0547523 0.88623047 -2.6823006c0.5877075 -0.6275482 1.4343262 -0.9413185 2.539795 -0.9413185c1.0841675 0 1.9261475 0.3137703 2.526123 0.9413185c0.5968628 0.6275482 0.8953247 1.5216484 0.8953247 2.6823006l0 9.262398c0 1.160656 -0.2984619 2.0547562 -0.8953247 2.6823006c-0.5999756 0.6275482 -1.4419556 0.9413185 -2.526123 0.9413185zm0 2.2756157c1.2333374 0 2.2946777 -0.23456573 3.183899 -0.70370483c0.8892212 -0.46913528 1.572937 -1.143898 2.0510254 -2.024292c0.47509766 -0.87734604 0.7126465 -1.9344254 0.7126465 -3.171238l0 -9.262398c0 -1.2185326 -0.23754883 -2.2725677 -0.7126465 -3.162098c-0.47808838 -0.88648605 -1.1618042 -1.5642967 -2.0510254 -2.033432c-0.8892212 -0.46609116 -1.9505615 -0.6991348 -3.183899 -0.6991348c-1.2363892 0 -2.2977295 0.23304367 -3.183899 0.6991348c-0.8892212 0.46913528 -1.572937 1.146946 -2.0510254 2.033432c-0.4781494 0.8895302 -0.7172241 1.9435616 -0.7172241 3.162098l0 9.289814c0 1.2185364 0.2390747 2.2664757 0.7172241 3.1438217c0.47808838 0.880394 1.1617432 1.5551567 2.0510254 2.024292c0.88616943 0.4691391 1.9475098 0.70370483 3.183899 0.70370483z" fill-rule="evenodd"/><path fill="#3d85c6" d="m736.0151 50.839c-1.0476074 0 -1.8896484 -0.32748032 -2.526123 -0.98244095c-0.6364746 -0.65496445 -0.9547119 -1.5338326 -0.9547119 -2.6366081c0 -1.0844955 0.3182373 -1.9603195 0.9547119 -2.627468c0.6364746 -0.66410065 1.4785156 -0.9961548 2.526123 -0.9961548l3.8188477 0l0 7.242672zm6.3449707 2.2756157l0 -20.494247l-2.526123 0l0 8.704914l-3.2844238 0l-3.9284668 -8.704914l-2.973816 0l4.2939453 8.983654c-1.2363892 0.37470245 -2.2139282 1.0570793 -2.9326172 2.047142c-0.72180176 0.99310684 -1.0826416 2.182701 -1.0826416 3.5687866c0 1.1789322 0.25274658 2.2070732 0.7583008 3.0844193c0.50549316 0.88039017 1.2166138 1.5688629 2.1332397 2.0654182c0.916626 0.4965515 1.982544 0.7448273 3.1976318 0.7448273z" fill-rule="evenodd"/><path fill="#3d85c6" d="m724.8718 53.114616l0 -20.494247l-11.785461 0l0 2.303032l9.259399 0l0 18.191216z" fill-rule="evenodd"/><path fill="#3d85c6" d="m703.3775 50.87099c-1.2363892 0 -2.204834 -0.34728622 -2.9052124 -1.041851c-0.7034912 -0.6915169 -1.0552368 -1.6450233 -1.0552368 -2.8605118l0 -8.170284c0 -1.2368126 0.3517456 -2.2009773 1.0552368 -2.892498c0.7003784 -0.6915207 1.6688232 -1.0372772 2.9052124 -1.0372772l2.7774048 0l0 16.002422zm5.303467 2.2436256l0 -20.494247l-5.303467 0c-1.3308105 0 -2.477356 0.25284576 -3.4396973 0.7585373c-0.96539307 0.5056915 -1.7145386 1.2215805 -2.2474365 2.1476707c-0.532959 0.9260864 -0.7994385 2.016674 -0.7994385 3.2717667l0 8.170284c0 1.2520447 0.2664795 2.336544 0.7994385 3.2534904c0.53289795 0.9169502 1.2820435 1.6282692 2.2474365 2.1339607c0.9623413 0.5056915 2.1088867 0.7585373 3.4396973 0.7585373z" fill-rule="evenodd"/><path fill="#1c4587" d="m245.46803 53.114616l-6.175949 -12.831181l0 -7.663067l-2.5261078 0l0 7.663067l-6.1713867 12.831181l2.6083374 0l3.983307 -8.421604c0.22535706 -0.46913528 0.40808105 -0.868206 0.54815674 -1.1972122c0.14007568 -0.32595825 0.22991943 -0.56357193 0.269516 -0.71284103c0.0365448 0.1492691 0.120285034 0.38688278 0.25123596 0.71284103c0.13095093 0.3290062 0.3090973 0.72807693 0.53445435 1.1972122l4.070099 8.421604z" fill-rule="evenodd"/><path fill="#1c4587" d="m221.19179 51.12231c-1.1054535 0 -1.9520721 -0.3137703 -2.5398102 -0.9413185c-0.59080505 -0.6275444 -0.88619995 -1.5216446 -0.88619995 -2.6823006l0 -9.262398c0 -1.1606522 0.2953949 -2.0547523 0.88619995 -2.6823006c0.58773804 -0.6275482 1.4343567 -0.9413185 2.5398102 -0.9413185c1.0841522 0 1.9261932 0.3137703 2.5261078 0.9413185c0.5968933 0.6275482 0.89533997 1.5216484 0.89533997 2.6823006l0 9.262398c0 1.160656 -0.29844666 2.0547562 -0.89533997 2.6823006c-0.5999298 0.6275482 -1.4419708 0.9413185 -2.5261078 0.9413185zm0 2.2756157c1.2333679 0 2.2946777 -0.23456573 3.1839142 -0.70370483c0.88923645 -0.46913528 1.5729065 -1.143898 2.0510254 -2.024292c0.4750824 -0.87734604 0.71261597 -1.9344254 0.71261597 -3.171238l0 -9.262398c0 -1.2185326 -0.23753357 -2.2725677 -0.71261597 -3.162098c-0.47810364 -0.88648605 -1.161789 -1.5642967 -2.0510254 -2.033432c-0.88923645 -0.46609116 -1.9505463 -0.6991348 -3.1839142 -0.6991348c-1.2364044 0 -2.2977142 0.23304367 -3.183899 0.6991348c-0.88923645 0.46913528 -1.5729218 1.146946 -2.0510406 2.033432c-0.4781189 0.8895302 -0.71717834 1.9435616 -0.71717834 3.162098l0 9.289814c0 1.2185364 0.23905945 2.2664757 0.71717834 3.1438217c0.4781189 0.880394 1.161789 1.5551567 2.0510406 2.024292c0.8861847 0.4691391 1.9474945 0.70370483 3.183899 0.70370483z" fill-rule="evenodd"/><path fill="#1c4587" d="m210.24501 53.114616l0 -14.878323c0 -1.8156166 -0.5055237 -3.2519684 -1.5165863 -4.3090477c-1.0110474 -1.0570793 -2.4697723 -1.5856171 -4.3761597 -1.5856171c-1.9277039 0 -3.390976 0.52396774 -4.389862 1.5719109c-1.0019073 1.0479393 -1.5028687 2.488861 -1.5028687 4.322754l0 14.878323l2.5261078 0l0 -14.878323c0 -1.1240997 0.28016663 -2.01363 0.84051514 -2.6685905c0.5603485 -0.65496445 1.4023743 -0.98244476 2.5261078 -0.98244476c1.1420135 0 1.988617 0.32748032 2.5398254 0.98244476c0.55119324 0.65496063 0.82681274 1.5444908 0.82681274 2.6685905l0 14.878323z" fill-rule="evenodd"/><path fill="#1c4587" d="m187.00569 50.839c-1.0475922 0 -1.8896179 -0.32748032 -2.5261078 -0.98244095c-0.6364746 -0.65496445 -0.9547119 -1.5338326 -0.9547119 -2.6366081c0 -1.0844955 0.3182373 -1.9603195 0.9547119 -2.627468c0.6364746 -0.66410065 1.4785156 -0.9961548 2.5261078 -0.9961548l3.818863 0l0 7.242672zm6.344986 2.2756157l0 -20.494247l-2.526123 0l0 8.704914l-3.2843933 0l-3.9284973 -8.704914l-2.9737701 0l4.29393 8.983654c-1.2364197 0.37470245 -2.213974 1.0570793 -2.932663 2.047142c-0.721756 0.99310684 -1.0826263 2.182701 -1.0826263 3.5687866c0 1.1789322 0.25276184 2.2070732 0.7582855 3.0844193c0.50553894 0.88039017 1.216629 1.5688629 2.1332703 2.0654182c0.91664124 0.4965515 1.9825134 0.7448273 3.1976013 0.7448273z" fill-rule="evenodd"/><path fill="#1c4587" d="m153.07541 50.839c-1.1054535 0 -1.9901276 -0.33662033 -2.654007 -1.009861c-0.66389465 -0.67324066 -0.99583435 -1.5901871 -0.99583435 -2.750843c0 -1.1423798 0.3319397 -2.0547562 0.99583435 -2.7371368c0.6638794 -0.6823807 1.5485535 -1.023571 2.654007 -1.023571l4.070114 0l0 7.521412zm6.596222 2.2756157l0 -20.494247l-2.5261078 0l0 8.421604l-4.070114 0c-1.2729492 0 -2.3768768 0.24827576 -3.311798 0.7448311c-0.93492126 0.49655533 -1.6597137 1.1987343 -2.1743774 2.1065445c-0.5146637 0.9078102 -0.7720032 1.9694595 -0.7720032 3.184948c0 1.2368126 0.25733948 2.303032 0.7720032 3.198658c0.5146637 0.8986664 1.2394562 1.5962791 2.1743774 2.0928345c0.93492126 0.4965515 2.0388489 0.7448273 3.311798 0.7448273z" fill-rule="evenodd"/><path fill="#1c4587" d="m142.60828 53.114616l0 -20.494247l-11.790039 0l0 2.303032l9.291336 0l0 7.270088l-8.309219 0l0 2.2756157l8.309219 0l0 6.3424797l-9.291336 0l0 2.303032z" fill-rule="evenodd"/><path fill="#1c4587" d="m120.04047 53.397926c1.2364044 0 2.3083649 -0.23456573 3.2158813 -0.70370483c0.90750885 -0.46913528 1.6094589 -1.143898 2.1058502 -2.024292c0.49334717 -0.87734604 0.74002075 -1.9344254 0.74002075 -3.171238l0 -9.262398c0 -1.2185326 -0.24667358 -2.2725677 -0.74002075 -3.162098c-0.4963913 -0.88648605 -1.1983414 -1.5642967 -2.1058502 -2.033432c-0.9075165 -0.46609116 -1.9794769 -0.6991348 -3.2158813 -0.6991348c-1.2333679 0 -2.2992325 0.23761368 -3.197609 0.71284103c-0.89837646 0.4782753 -1.5911942 1.162178 -2.078453 2.051712c-0.48725128 0.8895302 -0.73088074 1.9329033 -0.73088074 3.1301117l2.5261154 0c0 -1.1606522 0.3045349 -2.0547523 0.91360474 -2.6823006c0.6090622 -0.6275482 1.4648056 -0.9413185 2.5672226 -0.9413185c1.1054535 0 1.9718552 0.3137703 2.5991974 0.9413185c0.6242981 0.6275482 0.93644714 1.5216484 0.93644714 2.6823006l0 9.289814c0 1.160656 -0.31214905 2.0501862 -0.93644714 2.6685944c-0.6273422 0.6184082 -1.4937439 0.9276085 -2.5991974 0.9276085c-1.102417 0 -1.9581604 -0.3137703 -2.5672226 -0.9413185c-0.6090698 -0.6275444 -0.91360474 -1.5216446 -0.91360474 -2.6823006l-2.5261154 0c0 1.2185364 0.24362946 2.2664757 0.73088074 3.1438217c0.4872589 0.880394 1.1800766 1.5597267 2.078453 2.038002c0.89837646 0.4782753 1.964241 0.71741104 3.197609 0.71741104z" fill-rule="evenodd"/><path fill="#1c4587" d="m108.92923 53.114616l0 -20.494247l-11.790039 0l0 2.303032l9.291336 0l0 7.270088l-8.309219 0l0 2.2756157l8.309219 0l0 6.3424797l-9.291336 0l0 2.303032z" fill-rule="evenodd"/><path fill="#1c4587" d="m85.71733 50.839c-1.1054611 0 -1.9901352 -0.33662033 -2.6540146 -1.009861c-0.663887 -0.67324066 -0.9958267 -1.5901871 -0.9958267 -2.750843c0 -1.1423798 0.3319397 -2.0547562 0.9958267 -2.7371368c0.6638794 -0.6823807 1.5485535 -1.023571 2.6540146 -1.023571l4.070099 0l0 7.521412zm6.5962143 2.2756157l0 -20.494247l-2.5261154 0l0 8.421604l-4.070099 0c-1.2729568 0 -2.376892 0.24827576 -3.3118057 0.7448311c-0.9349289 0.49655533 -1.6597214 1.1987343 -2.1743774 2.1065445c-0.5146637 0.9078102 -0.77199554 1.9694595 -0.77199554 3.184948c0 1.2368126 0.25733185 2.303032 0.77199554 3.198658c0.5146637 0.8986664 1.2394562 1.5962791 2.1743774 2.0928345c0.93492126 0.4965515 2.0388565 0.7448273 3.3118057 0.7448273z" fill-rule="evenodd"/><path fill="#1c4587" d="m76.51096 53.142036l0 -2.3030357l-5.61409 0l0 -18.218632l-2.5261154 0l0 18.218632l-5.609516 0l0 2.3030357z" fill-rule="evenodd"/><path fill="#1c4587" d="m58.269062 53.114616l0 -2.303032l-4.1842995 0l0 -15.888184l4.1842995 0l0 -2.303032l-10.944962 0l0 2.303032l4.1797333 0l0 15.888184l-4.1797333 0l0 2.303032z" fill-rule="evenodd"/><path fill="#1c4587" d="m35.957058 51.12231c-1.1054573 0 -1.9520645 -0.3137703 -2.539814 -0.9413185c-0.59080124 -0.6275444 -0.88619614 -1.5216446 -0.88619614 -2.6823006l0 -9.262398c0 -1.1606522 0.2953949 -2.0547523 0.88619614 -2.6823006c0.5877495 -0.6275482 1.4343567 -0.9413185 2.539814 -0.9413185c1.0841484 0 1.9261856 0.3137703 2.5261154 0.9413185c0.59688187 0.6275482 0.8953285 1.5216484 0.8953285 2.6823006l0 9.262398c0 1.160656 -0.29844666 2.0547562 -0.8953285 2.6823006c-0.59993744 0.6275482 -1.4419785 0.9413185 -2.5261154 0.9413185zm0 2.2756157c1.2333641 0 2.29467 -0.23456573 3.1839066 -0.70370483c0.88924026 -0.46913528 1.5729141 -1.143898 2.0510406 -2.024292c0.47507095 -0.87734604 0.71260834 -1.9344254 0.71260834 -3.171238l0 -9.262398c0 -1.2185326 -0.23753738 -2.2725677 -0.71260834 -3.162098c-0.47811508 -0.88648605 -1.1617928 -1.5642967 -2.0510406 -2.033432c-0.88923645 -0.46609116 -1.9505424 -0.6991348 -3.1839066 -0.6991348c-1.2364044 0 -2.2977104 0.23304367 -3.1839027 0.6991348c-0.88923836 0.46913528 -1.572916 1.146946 -2.0510406 2.033432c-0.47811508 0.8895302 -0.71717834 1.9435616 -0.71717834 3.162098l0 9.289814c0 1.2185364 0.23906326 2.2664757 0.71717834 3.1438217c0.478117 0.880394 1.1617928 1.5551567 2.0510406 2.024292c0.8861923 0.4691391 1.9474983 0.70370483 3.1839027 0.70370483z" fill-rule="evenodd"/><path fill="#1c4587" d="m25.010277 53.114616l0 -20.494247l-2.4393196 0l0 11.510593c0 0.6915207 0.0137043 1.4165497 0.0411129 2.175087c0.0274086 0.7585373 0.06090927 1.4789963 0.10049629 2.161377c0.036542892 0.6854286 0.07308769 1.2520447 0.10963249 1.6998596l0 0l-6.230772 -17.546917l-3.3666267 0l0 20.494247l2.4393196 0l0 -11.510593c0 -0.67324066 -0.013703346 -1.3891296 -0.041111946 -2.147667c-0.027407646 -0.7585411 -0.063952446 -1.4790001 -0.10963249 -2.1613808c-0.048722267 -0.6823807 -0.09136009 -1.2581367 -0.12790394 -1.727272l6.2581787 17.546913z" fill-rule="evenodd"/><path fill="#385ae0" d="m289.36304 49.991875l10.695709 18.535423l21.38028 0l10.695679 -18.535423l-10.695679 -18.535425l-21.38028 0z" fill-rule="evenodd"/><path fill="#000000" d="m298.60153 49.988792l6.0793457 10.535431l12.15625 0l6.0793457 -10.535431l-6.0793457 -10.535427l-12.15625 0z" fill-rule="evenodd"/><path fill="#000000" d="m886.7836 16.01361l-232.25195 0l0 -4.4409437l232.25195 0z" fill-rule="evenodd"/><path fill="#ffffff" d="m245.46982 16.01361l-232.25197 0l0 -4.4409437l232.25197 0z" fill-rule="evenodd"/></g></svg>