<svg version="1.1" viewBox="0.0 0.0 900.0 100.0" fill="none" stroke="none" stroke-linecap="square" stroke-miterlimit="10" xmlns:xlink="http://www.w3.org/1999/xlink" xmlns="http://www.w3.org/2000/svg"><clipPath id="g30ebd71f3c9_0_41.0"><path d="m0 0l900.0 0l0 100.0l-900.0 0l0 -100.0z" clip-rule="nonzero"/></clipPath><g clip-path="url(#g30ebd71f3c9_0_41.0)"><path fill="#000000" fill-opacity="0.0" d="m0 0l900.0 0l0 100.0l-900.0 0z" fill-rule="evenodd"/><path fill="#385ae0" d="m581.374 50.009735l-6.0794067 -10.535427l-12.156189 0l-6.0794067 10.535427l6.0794067 10.535431l12.156189 0z" fill-rule="evenodd"/><path fill="#385ae0" d="m298.56924 10.005249c-6.7036743 0 -12.085999 1.6243591 -16.147003 4.8730755c-4.060974 3.2365952 -6.091461 7.570236 -6.091461 13.000927l0 6.0367947c0 4.618511 1.5637817 8.455151 4.691345 11.509914c3.1275635 3.05476 7.5219116 5.0609627 13.183075 6.018608l20.110992 3.3638763c3.4306335 0.5212517 6.127838 1.6789131 8.091675 3.4729767c1.9759521 1.7819443 2.9639282 3.9396706 2.9639282 6.4731865l0 7.1459656c0 3.2002335 -1.3395386 5.7882996 -4.018585 7.7641907c-2.6790466 1.9758987 -6.2127075 2.963852 -10.600983 2.963852l-12.401184 0c-4.4731445 0 -8.073486 -1.4304047 -10.801025 -4.2912216c-2.7154236 -2.8729248 -4.07312 -6.6186523 -4.07312 -11.23716l-8.037109 0c0 4.533661 0.9455261 8.533943 2.836609 12.0008545c1.9032288 3.4669113 4.5701294 6.151947 8.000763 8.055122c3.4306335 1.8910446 7.376465 2.836563 11.837494 2.836563l12.855774 0c6.7763977 0 12.249634 -1.6546631 16.419739 -4.9639893c4.1700745 -3.3214493 6.255127 -7.6975174 6.255127 -13.128212l0 -7.1459656c0 -4.5457764 -1.6001587 -8.291496 -4.8004456 -11.237164c-3.2003174 -2.9456635 -7.709839 -4.939747 -13.528564 -5.9822426l-19.983704 -3.454792c-3.3579102 -0.5939865 -5.9884644 -1.7819481 -7.8916626 -3.5638924c-1.8910828 -1.7940674 -2.8366394 -3.9942245 -2.8366394 -6.6004715l0 -6.0367947c0 -3.2002277 1.2667847 -5.745865 3.800354 -7.6369076c2.5335999 -1.9031658 5.9217834 -2.8547497 10.164612 -2.8547497l12.619385 0c3.9518738 0 7.115814 1.2303905 9.491791 3.6911716c2.3881226 2.4486618 3.5821533 5.7216225 3.5821533 9.818884l8.03714 0c0 -6.2549915 -1.9395752 -11.297775 -5.8187256 -15.128353c-3.867035 -3.842699 -8.964508 -5.7640476 -15.292358 -5.7640476z" fill-rule="evenodd"/><path fill="#385ae0" d="m349.28836 10.896222l0 78.20558l8.273499 0l0 -78.20558z" fill-rule="evenodd"/><path fill="#385ae0" d="m370.519 10.896222l26.58432 38.33001l-27.7117 39.875576l9.27359 0l23.129486 -33.18419l23.020355 33.18419l9.27359 0l-27.7117 -39.875576l26.58432 -38.33001l-9.16449 0l-22.002075 31.511341l-22.002106 -31.511341z" fill-rule="evenodd"/><path fill="#385ae0" d="m445.92584 10.896222l0 78.20558l8.273499 0l0 -78.20558z" fill-rule="evenodd"/><path fill="#385ae0" d="m493.6317 10.005249c-6.703644 0 -12.085968 1.6243591 -16.146973 4.8730755c-4.0610046 3.2365952 -6.0914917 7.570236 -6.0914917 13.000927l0 6.0367947c0 4.618511 1.5637817 8.455151 4.691345 11.509914c3.127594 3.05476 7.521942 5.0609627 13.183075 6.018608l20.110992 3.3638763c3.430664 0.5212517 6.1278687 1.6789131 8.091675 3.4729767c1.9759521 1.7819443 2.9639282 3.9396706 2.9639282 6.4731865l0 7.1459656c0 3.2002335 -1.3395386 5.7882996 -4.0185547 7.7641907c-2.6790771 1.9758987 -6.2127075 2.963852 -10.601013 2.963852l-12.401184 0c-4.4731445 0 -8.073486 -1.4304047 -10.801025 -4.2912216c-2.715393 -2.8729248 -4.0730896 -6.6186523 -4.0730896 -11.23716l-8.03714 0c0 4.533661 0.94555664 8.533943 2.8366394 12.0008545c1.9031982 3.4669113 4.5701294 6.151947 8.000763 8.055122c3.430603 1.8910446 7.3764343 2.836563 11.837463 2.836563l12.855774 0c6.776428 0 12.249634 -1.6546631 16.419739 -4.9639893c4.170105 -3.3214493 6.255127 -7.6975174 6.255127 -13.128212l0 -7.1459656c0 -4.5457764 -1.6001587 -8.291496 -4.800415 -11.237164c-3.2003174 -2.9456635 -7.709839 -4.939747 -13.528564 -5.9822426l-19.983734 -3.454792c-3.3578796 -0.5939865 -5.988434 -1.7819481 -7.8916626 -3.5638924c-1.8910828 -1.7940674 -2.836609 -3.9942245 -2.836609 -6.6004715l0 -6.0367947c0 -3.2002277 1.2667847 -5.745865 3.800354 -7.6369076c2.5335693 -1.9031658 5.9217834 -2.8547497 10.164581 -2.8547497l12.619385 0c3.9519043 0 7.1158447 1.2303905 9.491821 3.6911716c2.3881226 2.4486618 3.5821533 5.7216225 3.5821533 9.818884l8.037109 0c0 -6.2549915 -1.9395752 -11.297775 -5.8187256 -15.128353c-3.8670044 -3.842699 -8.964478 -5.7640476 -15.292358 -5.7640476z" fill-rule="evenodd"/><path fill="#3d85c6" d="m55.567375 46.85788l0 2.303032l5.61409 0l0 18.218636l2.5261116 0l0 -18.218636l5.609524 0l0 -2.303032z" fill-rule="evenodd"/><path fill="#3d85c6" d="m73.471245 46.885296l0 20.494251l2.5261078 0l0 -9.431469l6.5688095 0l0 9.431469l2.5261078 0l0 -20.494251l-2.5261078 0l0 8.75975l-6.5688095 0l0 -8.75975z" fill-rule="evenodd"/><path fill="#3d85c6" d="m90.50719 46.885296l0 20.494251l11.790047 0l0 -2.303032l-9.291344 0l0 -7.270092l8.309219 0l0 -2.2756157l-8.309219 0l0 -6.3424797l9.291344 0l0 -2.303032z" fill-rule="evenodd"/><path fill="#3d85c6" d="m122.084946 46.885296l2.3570938 20.494251l3.1702042 0l1.882019 -15.440376c0.05480957 -0.43257904 0.100494385 -0.854496 0.13703918 -1.2657509c0.039596558 -0.4112587 0.082229614 -0.7935715 0.12789917 -1.1469498c0.045684814 -0.3564186 0.07766724 -0.6473465 0.09593201 -0.87277603c0.021316528 0.22542953 0.050247192 0.5163574 0.08679199 0.87277603c0.0365448 0.3533783 0.07766724 0.7356911 0.12333679 1.1469498c0.048736572 0.41125488 0.09136963 0.83317184 0.12791443 1.2657509l1.7404022 15.440376l3.1702118 0l2.4164734 -20.494251l-2.3022766 0l-1.5988007 15.161633c-0.039596558 0.41125488 -0.082229614 0.83774185 -0.12791443 1.2794609c-0.045669556 0.43867493 -0.083740234 0.854496 -0.11419678 1.2474785c-0.027404785 0.39297485 -0.050247192 0.720459 -0.06851196 0.98244476c-0.01828003 -0.26198578 -0.05177307 -0.5894699 -0.10050964 -0.98244476c-0.045669556 -0.39298248 -0.09135437 -0.80880356 -0.13703918 -1.2474785c-0.045669556 -0.44171906 -0.09744263 -0.868206 -0.15530396 -1.2794609l-1.7404175 -15.161633l-2.6083374 0l-1.9094315 15.161633c-0.0548172 0.41125488 -0.10658264 0.83774185 -0.15531158 1.2794609c-0.045677185 0.43867493 -0.083747864 0.854496 -0.11419678 1.2474785c-0.027412415 0.39297485 -0.059387207 0.720459 -0.09593201 0.98244476c0 -0.26198578 -0.013702393 -0.5894699 -0.041107178 -0.98244476c-0.027412415 -0.39298248 -0.060913086 -0.80880356 -0.100502014 -1.2474785c-0.0365448 -0.44171906 -0.07308197 -0.868206 -0.10962677 -1.2794609l-1.5439911 -15.161633z" fill-rule="evenodd"/><path fill="#3d85c6" d="m146.63985 48.8776c1.1054535 0 1.9520569 0.3137741 2.5398102 0.9413185c0.59080505 0.6275444 0.88619995 1.5216484 0.88619995 2.6823006l0 9.262398c0 1.160656 -0.2953949 2.0547562 -0.88619995 2.6823044c-0.5877533 0.6275406 -1.4343567 0.9413147 -2.5398102 0.9413147c-1.0841522 0 -1.926178 -0.3137741 -2.526123 -0.9413147c-0.59687805 -0.6275482 -0.8953247 -1.5216484 -0.8953247 -2.6823044l0 -9.262398c0 -1.1606522 0.29844666 -2.0547562 0.8953247 -2.6823006c0.59994507 -0.6275444 1.4419708 -0.9413185 2.526123 -0.9413185zm0 -2.2756157c-1.2333679 0 -2.2946777 0.23456955 -3.1839142 0.70370483c-0.88923645 0.46913528 -1.5729218 1.143898 -2.0510406 2.024292c-0.47506714 0.87734604 -0.7126007 1.9344254 -0.7126007 3.171238l0 9.262398c0 1.2185364 0.23753357 2.2725677 0.7126007 3.1621017c0.4781189 0.88648224 1.1618042 1.5642929 2.0510406 2.033432c0.88923645 0.46608734 1.9505463 0.6991348 3.1839142 0.6991348c1.2364044 0 2.297699 -0.23304749 3.183899 -0.6991348c0.88923645 -0.4691391 1.5729218 -1.1469498 2.0510406 -2.033432c0.4781189 -0.889534 0.71717834 -1.9435654 0.71717834 -3.1621017l0 -9.289814c0 -1.2185364 -0.23905945 -2.2664757 -0.71717834 -3.1438217c-0.4781189 -0.88039017 -1.1618042 -1.5551567 -2.0510406 -2.024292c-0.88619995 -0.46913528 -1.9474945 -0.70370483 -3.183899 -0.70370483z" fill-rule="evenodd"/><path fill="#3d85c6" d="m163.98642 49.16091c1.0475922 0 1.8896332 0.32748032 2.5261078 0.98244476c0.6364746 0.65496063 0.9547119 1.5338287 0.9547119 2.6366043c0 1.0844994 -0.3182373 1.9603195 -0.9547119 2.627468c-0.6364746 0.66410446 -1.4785156 0.9961548 -2.5261078 0.9961548l-3.818863 0l0 -7.242672zm-6.344986 -2.2756157l0 20.494251l2.526123 0l0 -8.704918l3.2843933 0l3.9284973 8.704918l2.9737701 0l-4.29393 -8.983658c1.2364197 -0.37469864 2.213974 -1.0570793 2.932663 -2.0471382c0.721756 -0.99310684 1.0826263 -2.182705 1.0826263 -3.5687904c0 -1.1789322 -0.25276184 -2.2070694 -0.7582855 -3.0844154c-0.50553894 -0.880394 -1.216629 -1.5688667 -2.1332703 -2.0654182c-0.91664124 -0.49655533 -1.9825134 -0.7448311 -3.1976013 -0.7448311z" fill-rule="evenodd"/><path fill="#3d85c6" d="m175.12962 46.885296l0 20.494251l11.785477 0l0 -2.303032l-9.259369 0l0 -18.19122z" fill-rule="evenodd"/><path fill="#3d85c6" d="m196.62395 49.128925c1.2364044 0 2.204834 0.3472824 2.9052582 1.0418472c0.70347595 0.6915169 1.0552063 1.6450233 1.0552063 2.8605118l0 8.170284c0 1.2368126 -0.35173035 2.2009811 -1.0552063 2.8925018c-0.7004242 0.6915207 -1.6688538 1.0372772 -2.9052582 1.0372772l-2.777359 0l0 -16.002422zm-5.303467 -2.2436295l0 20.494251l5.303467 0c1.3308105 0 2.4773865 -0.25284576 3.4397125 -0.7585373c0.9653778 -0.5056915 1.7145233 -1.2215805 2.247467 -2.1476746c0.53292847 -0.9260826 0.79940796 -2.016674 0.79940796 -3.2717667l0 -8.170284c0 -1.2520447 -0.2664795 -2.3365402 -0.79940796 -3.2534904c-0.5329437 -0.9169464 -1.2820892 -1.6282692 -2.247467 -2.1339607c-0.96232605 -0.5056915 -2.108902 -0.7585373 -3.4397125 -0.7585373z" fill-rule="evenodd"/><path fill="#1c4587" d="m654.53345 46.885296l6.1759644 12.831181l0 7.6630707l2.526062 0l0 -7.6630707l6.1713867 -12.831181l-2.6083374 0l-3.9832764 8.421604c-0.2253418 0.4691391 -0.40808105 0.86820984 -0.54815674 1.1972122c-0.14007568 0.32595825 -0.22991943 0.56357193 -0.26953125 0.71284485c-0.03656006 -0.14927292 -0.12030029 -0.3868866 -0.2512207 -0.71284485c-0.13098145 -0.32900238 -0.30908203 -0.7280731 -0.53448486 -1.1972122l-4.0700684 -8.421604z" fill-rule="evenodd"/><path fill="#1c4587" d="m678.8097 48.8776c1.1054688 0 1.9520264 0.3137741 2.539795 0.9413185c0.5908203 0.6275444 0.88623047 1.5216484 0.88623047 2.6823006l0 9.262398c0 1.160656 -0.29541016 2.0547562 -0.88623047 2.6823044c-0.58776855 0.6275406 -1.4343262 0.9413147 -2.539795 0.9413147c-1.0841675 0 -1.9262085 -0.3137741 -2.526123 -0.9413147c-0.5968628 -0.6275482 -0.8953247 -1.5216484 -0.8953247 -2.6823044l0 -9.262398c0 -1.1606522 0.2984619 -2.0547562 0.8953247 -2.6823006c0.59991455 -0.6275444 1.4419556 -0.9413185 2.526123 -0.9413185zm0 -2.2756157c-1.2333984 0 -2.2946777 0.23456955 -3.183899 0.70370483c-0.8892822 0.46913528 -1.572937 1.143898 -2.0510864 2.024292c-0.47503662 0.87734604 -0.71258545 1.9344254 -0.71258545 3.171238l0 9.262398c0 1.2185364 0.23754883 2.2725677 0.71258545 3.1621017c0.4781494 0.88648224 1.1618042 1.5642929 2.0510864 2.033432c0.8892212 0.46608734 1.9505005 0.6991348 3.183899 0.6991348c1.2363892 0 2.2977295 -0.23304749 3.183899 -0.6991348c0.8892212 -0.4691391 1.572937 -1.1469498 2.0510254 -2.033432c0.4781494 -0.889534 0.7171631 -1.9435654 0.7171631 -3.1621017l0 -9.289814c0 -1.2185364 -0.23901367 -2.2664757 -0.7171631 -3.1438217c-0.47808838 -0.88039017 -1.1618042 -1.5551567 -2.0510254 -2.024292c-0.88616943 -0.46913528 -1.9475098 -0.70370483 -3.183899 -0.70370483z" fill-rule="evenodd"/><path fill="#1c4587" d="m689.7565 46.885296l0 14.878323c0 1.8156204 0.50549316 3.2519684 1.5166016 4.309044c1.0110474 1.0570831 2.4697266 1.5856247 4.3761597 1.5856247c1.9276733 0 3.3909302 -0.52397156 4.3898315 -1.5719147c1.0018921 -1.0479431 1.5028687 -2.488861 1.5028687 -4.322754l0 -14.878323l-2.526123 0l0 14.878323c0 1.1240997 -0.28015137 2.01363 -0.84051514 2.6685944c-0.56030273 0.65496063 -1.4023438 0.98244476 -2.526062 0.98244476c-1.1420288 0 -1.9886475 -0.32748413 -2.539856 -0.98244476c-0.5512085 -0.65496445 -0.8267822 -1.5444946 -0.8267822 -2.6685944l0 -14.878323z" fill-rule="evenodd"/><path fill="#1c4587" d="m712.9958 49.16091c1.0476074 0 1.8895874 0.32748032 2.526123 0.98244476c0.6364746 0.65496063 0.9547119 1.5338287 0.9547119 2.6366043c0 1.0844994 -0.3182373 1.9603195 -0.9547119 2.627468c-0.6364746 0.66410446 -1.4785156 0.9961548 -2.526123 0.9961548l-3.8188477 0l0 -7.242672zm-6.3449707 -2.2756157l0 20.494251l2.526123 0l0 -8.704918l3.2843628 0l3.9285278 8.704918l2.973755 0l-4.2939453 -8.983658c1.2364502 -0.37469864 2.2139893 -1.0570793 2.9326782 -2.0471382c0.7217407 -0.99310684 1.0826416 -2.182705 1.0826416 -3.5687904c0 -1.1789322 -0.25280762 -2.2070694 -0.7583008 -3.0844154c-0.5055542 -0.880394 -1.2166138 -1.5688667 -2.1333008 -2.0654182c-0.916626 -0.49655533 -1.9824829 -0.7448311 -3.1975708 -0.7448311z" fill-rule="evenodd"/><path fill="#1c4587" d="m746.926 49.16091c1.1054688 0 1.9901733 0.33662033 2.6540527 1.009861c0.6638794 0.67324066 0.9958496 1.5901909 0.9958496 2.750843c0 1.1423798 -0.3319702 2.05476 -0.9958496 2.7371368c-0.6638794 0.6823807 -1.548584 1.023571 -2.6540527 1.023571l-4.0700684 0l0 -7.521412zm-6.5961914 -2.2756157l0 20.494251l2.526123 0l0 -8.421608l4.0700684 0c1.2730103 0 2.376892 -0.24827576 3.3118286 -0.7448311c0.9349365 -0.4965515 1.659729 -1.1987343 2.1743774 -2.1065445c0.51464844 -0.9078064 0.7720337 -1.9694557 0.7720337 -3.184948c0 -1.2368126 -0.25738525 -2.303032 -0.7720337 -3.1986542c-0.51464844 -0.8986702 -1.2394409 -1.596283 -2.1743774 -2.0928345c-0.9349365 -0.49655533 -2.0388184 -0.7448311 -3.3118286 -0.7448311z" fill-rule="evenodd"/><path fill="#1c4587" d="m757.3932 46.885296l0 20.494251l11.790039 0l0 -2.303032l-9.291321 0l0 -7.270092l8.309204 0l0 -2.2756157l-8.309204 0l0 -6.3424797l9.291321 0l0 -2.303032z" fill-rule="evenodd"/><path fill="#1c4587" d="m779.961 46.601986c-1.2363892 0 -2.3083496 0.23456955 -3.2158813 0.70370483c-0.90753174 0.46913528 -1.609436 1.143898 -2.105835 2.024292c-0.49334717 0.87734604 -0.74005127 1.9344254 -0.74005127 3.171238l0 9.262398c0 1.2185364 0.2467041 2.2725677 0.74005127 3.1621017c0.49639893 0.88648224 1.1983032 1.5642929 2.105835 2.033432c0.90753174 0.46608734 1.9794922 0.6991348 3.2158813 0.6991348c1.2333984 0 2.2992554 -0.2376175 3.1976318 -0.71284485c0.89837646 -0.47827148 1.5911865 -1.162178 2.0784302 -2.051712c0.48724365 -0.88952637 0.730896 -1.9328995 0.730896 -3.1301117l-2.526123 0c0 1.160656 -0.3045044 2.0547562 -0.9135742 2.6823044c-0.6090698 0.6275406 -1.4648438 0.9413147 -2.5672607 0.9413147c-1.1054688 0 -1.9718628 -0.3137741 -2.5991821 -0.9413147c-0.6243286 -0.6275482 -0.9364624 -1.5216484 -0.9364624 -2.6823044l0 -9.289814c0 -1.160656 0.3121338 -2.0501862 0.9364624 -2.6685944c0.62731934 -0.6184044 1.4937134 -0.9276085 2.5991821 -0.9276085c1.102417 0 1.9581909 0.3137741 2.5672607 0.9413185c0.6090698 0.6275444 0.9135742 1.5216484 0.9135742 2.6823006l2.526123 0c0 -1.2185364 -0.24365234 -2.2664757 -0.730896 -3.1438217c-0.48724365 -0.88039017 -1.1800537 -1.5597229 -2.0784302 -2.038002c-0.89837646 -0.4782753 -1.9642334 -0.71741104 -3.1976318 -0.71741104z" fill-rule="evenodd"/><path fill="#1c4587" d="m791.07227 46.885296l0 20.494251l11.790039 0l0 -2.303032l-9.291382 0l0 -7.270092l8.309265 0l0 -2.2756157l-8.309265 0l0 -6.3424797l9.291382 0l0 -2.303032z" fill-rule="evenodd"/><path fill="#1c4587" d="m814.2841 49.16091c1.1054688 0 1.9901733 0.33662033 2.6540527 1.009861c0.6638794 0.67324066 0.9957886 1.5901909 0.9957886 2.750843c0 1.1423798 -0.33190918 2.05476 -0.9957886 2.7371368c-0.6638794 0.6823807 -1.548584 1.023571 -2.6540527 1.023571l-4.0700684 0l0 -7.521412zm-6.5961914 -2.2756157l0 20.494251l2.526123 0l0 -8.421608l4.0700684 0c1.2729492 0 2.376892 -0.24827576 3.3118286 -0.7448311c0.9349365 -0.4965515 1.659729 -1.1987343 2.1743774 -2.1065445c0.51464844 -0.9078064 0.77197266 -1.9694557 0.77197266 -3.184948c0 -1.2368126 -0.25732422 -2.303032 -0.77197266 -3.1986542c-0.51464844 -0.8986702 -1.2394409 -1.596283 -2.1743774 -2.0928345c-0.9349365 -0.49655533 -2.0388794 -0.7448311 -3.3118286 -0.7448311z" fill-rule="evenodd"/><path fill="#1c4587" d="m823.4905 46.85788l0 2.303032l5.6141357 0l0 18.218636l2.526123 0l0 -18.218636l5.609497 0l0 -2.303032z" fill-rule="evenodd"/><path fill="#1c4587" d="m841.7324 46.885296l0 2.303032l4.184265 0l0 15.888187l-4.184265 0l0 2.303032l10.944946 0l0 -2.303032l-4.1797485 0l0 -15.888187l4.1797485 0l0 -2.303032z" fill-rule="evenodd"/><path fill="#1c4587" d="m864.04443 48.8776c1.1054077 0 1.9520264 0.3137741 2.539795 0.9413185c0.5908203 0.6275444 0.88616943 1.5216484 0.88616943 2.6823006l0 9.262398c0 1.160656 -0.29534912 2.0547562 -0.88616943 2.6823044c-0.58776855 0.6275406 -1.4343872 0.9413147 -2.539795 0.9413147c-1.0841675 0 -1.9262085 -0.3137741 -2.526123 -0.9413147c-0.5969238 -0.6275482 -0.8953247 -1.5216484 -0.8953247 -2.6823044l0 -9.262398c0 -1.1606522 0.29840088 -2.0547562 0.8953247 -2.6823006c0.59991455 -0.6275444 1.4419556 -0.9413185 2.526123 -0.9413185zm0 -2.2756157c-1.2333984 0 -2.2946777 0.23456955 -3.183899 0.70370483c-0.8892822 0.46913528 -1.572937 1.143898 -2.0510864 2.024292c-0.47503662 0.87734604 -0.71258545 1.9344254 -0.71258545 3.171238l0 9.262398c0 1.2185364 0.23754883 2.2725677 0.71258545 3.1621017c0.4781494 0.88648224 1.1618042 1.5642929 2.0510864 2.033432c0.8892212 0.46608734 1.9505005 0.6991348 3.183899 0.6991348c1.2363892 0 2.2976685 -0.23304749 3.183899 -0.6991348c0.8892212 -0.4691391 1.572876 -1.1469498 2.0510254 -2.033432c0.47808838 -0.889534 0.7171631 -1.9435654 0.7171631 -3.1621017l0 -9.289814c0 -1.2185364 -0.2390747 -2.2664757 -0.7171631 -3.1438217c-0.47808838 -0.88039017 -1.1618042 -1.5551567 -2.0510254 -2.024292c-0.88623047 -0.46913528 -1.9475098 -0.70370483 -3.183899 -0.70370483z" fill-rule="evenodd"/><path fill="#1c4587" d="m874.9912 46.885296l0 20.494251l2.439331 0l0 -11.510597c0 -0.6915169 -0.01373291 -1.4165459 -0.041137695 -2.175087c-0.027404785 -0.7585373 -0.060913086 -1.4789963 -0.1005249 -2.161377c-0.036499023 -0.6854248 -0.07305908 -1.2520447 -0.10961914 -1.6998558l0 0l6.230774 17.546917l3.3666382 0l0 -20.494251l-2.439331 0l0 11.510593c0 0.67324066 0.01373291 1.3891296 0.041137695 2.1476707c0.027404785 0.7585373 0.063964844 1.4789963 0.10961914 2.161377c0.048706055 0.6823807 0.09136963 1.2581406 0.12792969 1.7272758l-6.2581787 -17.546917z" fill-rule="evenodd"/><path fill="#385ae0" d="m610.6384 50.008038l-10.695679 -18.535423l-21.38031 0l-10.695679 18.535423l10.695679 18.535427l21.38031 0z" fill-rule="evenodd"/><path fill="#ffffff" d="m601.39996 50.01112l-6.0794067 -10.535427l-12.156189 0l-6.0794067 10.535427l6.0794067 10.535427l12.156189 0z" fill-rule="evenodd"/><path fill="#000000" d="m13.217849 83.986305l232.25197 0l0 4.440941l-232.25197 0z" fill-rule="evenodd"/><path fill="#ffffff" d="m654.5317 83.986305l232.25195 0l0 4.440941l-232.25195 0z" fill-rule="evenodd"/></g></svg>